<?xml version="1.0" encoding="UTF-8" standalone="no"?>
<!-- Created with Inkscape (http://www.inkscape.org/) -->

<svg
   version="1.1"
   id="svg9"
   width="512"
   height="512"
   viewBox="0 0 512 512"
   sodipodi:docname="Elementaryblue.svg"
   inkscape:version="1.2 (dc2aedaf03, 2022-05-15)"
   xmlns:inkscape="http://www.inkscape.org/namespaces/inkscape"
   xmlns:sodipodi="http://sodipodi.sourceforge.net/DTD/sodipodi-0.dtd"
   xmlns="http://www.w3.org/2000/svg"
   xmlns:svg="http://www.w3.org/2000/svg">
  <defs
     id="defs13" />
  <sodipodi:namedview
     id="namedview11"
     pagecolor="#505050"
     bordercolor="#ffffff"
     borderopacity="1"
     inkscape:showpageshadow="0"
     inkscape:pageopacity="0"
     inkscape:pagecheckerboard="1"
     inkscape:deskcolor="#505050"
     showgrid="false"
     showguides="true"
     inkscape:zoom="6.3593751"
     inkscape:cx="64.393119"
     inkscape:cy="70.604422"
     inkscape:window-width="2560"
     inkscape:window-height="1017"
     inkscape:window-x="1220"
     inkscape:window-y="-8"
     inkscape:window-maximized="1"
     inkscape:current-layer="layer1">
    <sodipodi:guide
       position="49.690418,461.0516"
       orientation="0,-1"
       id="guide69"
       inkscape:locked="false" />
    <sodipodi:guide
       position="49.690418,400.6683"
       orientation="1,0"
       id="guide71"
       inkscape:locked="false" />
    <sodipodi:guide
       position="24.923833,510.11302"
       orientation="1,0"
       id="guide236"
       inkscape:locked="false" />
    <sodipodi:guide
       position="-12.815725,486.91892"
       orientation="0,-1"
       id="guide238"
       inkscape:locked="false" />
  </sodipodi:namedview>
  <g
     inkscape:groupmode="layer"
     id="layer1"
     inkscape:label="Image 1"
     style="display:inline">
    <path
       id="rect234"
       style="display:inline;fill:#0000ff;stroke-width:2.49302"
       d="m 1.8176245,0.43112731 c -0.84255512,0 -1.52300004,0.68044579 -1.52300004,1.52300189 V 88.77721 c 0,0.842556 0.68044492,1.516982 1.52300004,1.516982 H 33.186627 l 6.844474,11.311148 7.524707,12.44887 7.019047,-12.74384 6.061905,-11.016178 h 37.966662 c 0.84256,0 1.522998,-0.674426 1.522998,-1.516982 V 1.9541292 c 0,-0.8425561 -0.680438,-1.52300189 -1.522998,-1.52300189 z" />
  </g>
  <g
     inkscape:groupmode="layer"
     id="layer2"
     inkscape:label="Image 2"
     style="display:inline">
    <path
       id="path596"
       style="display:inline;fill:#ffffff;stroke-width:3.08212"
       d="M 47.730381,23.492851 16.198846,50.906863 15.687165,84.322584 41.644396,83.89518 41.72866,68.641093 54.06918,68.89993 V 84.322584 L 78.744203,83.979458 78.485367,50.136333 Z m 11.05229,27.630725 h 6.850492 c 0.854305,0 1.547083,0.686756 1.547083,1.541061 v 6.940789 c 0,0.854303 -0.692778,1.54106 -1.547083,1.54106 h -6.850492 c -0.854302,0 -1.541061,-0.686757 -1.541061,-1.54106 v -6.940789 c 0,-0.854305 0.686759,-1.541061 1.541061,-1.541061 z m -29.557053,0.385266 h 6.850497 c 0.854295,0 1.54106,0.686754 1.54106,1.541059 v 6.94079 c 0,0.854296 -0.686765,1.54106 -1.54106,1.54106 h -6.850497 c -0.854295,0 -1.547079,-0.686764 -1.547079,-1.54106 v -6.94079 c 0,-0.854305 0.692784,-1.541059 1.547079,-1.541059 z m 14.989221,0.04213 h 6.856511 c 0.854306,0 1.541061,0.686755 1.541061,1.54106 v 6.94079 c 0,0.854299 -0.686755,1.54106 -1.541061,1.54106 h -6.856511 c -0.854306,0 -1.541061,-0.686761 -1.541061,-1.54106 v -6.94079 c 0,-0.854305 0.686755,-1.541063 1.541061,-1.54106 z m 3.428454,-33.027811 36.926438,31.871541 c 4.943773,0.162798 5.344812,-2.218304 4.626515,-5.226249 L 50.556285,11.583397 C 48.44294,9.4049174 46.329592,10.159811 44.216246,11.840415 L 6.2616937,45.082778 c -0.6102044,3.256716 -0.8206207,6.232103 4.6265153,5.226247 z m 20.476611,3.941105 4.626512,4.283807 -0.08568,-21.8474265 C 71.115879,2.4873545 69.783373,3.4716111 68.462602,4.6436304 Z M 76.344816,4.8149706 c 0,0 3.211347,2.9639795 5.140573,2.7416384 2.880805,-0.3320091 5.623238,-0.5432051 8.481942,-0.4283808 1.300294,0.052211 4.455162,2.4846078 4.455162,2.4846078 v 14.307926 c 0,0 -3.422563,-2.698689 -5.740305,-2.570288 -2.798105,0.155 -5.524805,0.407518 -8.396265,0.428381 -1.584133,0.01141 -3.941107,-2.655961 -3.941107,-2.655961 z" />
  </g>
</svg>
