<?xml version="1.0" encoding="UTF-8" standalone="no"?>
<!-- Created with Inkscape (http://www.inkscape.org/) -->

<svg
   version="1.1"
   id="svg9"
   width="512"
   height="512"
   viewBox="0 0 512 512"
   sodipodi:docname="Elementarygreen.svg"
   inkscape:version="1.2 (dc2aedaf03, 2022-05-15)"
   xmlns:inkscape="http://www.inkscape.org/namespaces/inkscape"
   xmlns:sodipodi="http://sodipodi.sourceforge.net/DTD/sodipodi-0.dtd"
   xmlns="http://www.w3.org/2000/svg"
   xmlns:svg="http://www.w3.org/2000/svg">
  <defs
     id="defs13" />
  <sodipodi:namedview
     id="namedview11"
     pagecolor="#505050"
     bordercolor="#ffffff"
     borderopacity="1"
     inkscape:showpageshadow="0"
     inkscape:pageopacity="0"
     inkscape:pagecheckerboard="1"
     inkscape:deskcolor="#505050"
     showgrid="false"
     showguides="true"
     inkscape:zoom="8.9935145"
     inkscape:cx="28.742935"
     inkscape:cy="68.049037"
     inkscape:window-width="2560"
     inkscape:window-height="1017"
     inkscape:window-x="1220"
     inkscape:window-y="-8"
     inkscape:window-maximized="1"
     inkscape:current-layer="layer2">
    <sodipodi:guide
       position="49.690418,461.0516"
       orientation="0,-1"
       id="guide69"
       inkscape:locked="false" />
    <sodipodi:guide
       position="49.690418,400.6683"
       orientation="1,0"
       id="guide71"
       inkscape:locked="false" />
    <sodipodi:guide
       position="24.923833,510.11302"
       orientation="1,0"
       id="guide236"
       inkscape:locked="false" />
    <sodipodi:guide
       position="-12.815725,486.91892"
       orientation="0,-1"
       id="guide238"
       inkscape:locked="false" />
  </sodipodi:namedview>
  <g
     inkscape:groupmode="layer"
     id="layer1"
     inkscape:label="Image 1"
     style="display:inline">
    <path
       id="rect234"
       style="display:inline;fill:#00ff00;stroke-width:2.49955"
       d="m 1.5368094,0.21772195 c -0.84476256,0 -1.52699016,0.68222853 -1.52699016,1.52699205 v 87.050549 c 0,0.844763 0.6822276,1.520956 1.52699016,1.520956 H 32.987996 l 6.862405,11.340771 7.544421,12.48149 7.037437,-12.77723 6.077786,-11.045031 h 38.066131 c 0.844764,0 1.526994,-0.676193 1.526994,-1.520956 V 1.744714 c 0,-0.84476352 -0.68223,-1.52699205 -1.526994,-1.52699205 z" />
  </g>
  <g
     inkscape:groupmode="layer"
     id="layer2"
     inkscape:label="Image 2"
     style="display:inline;fill:#000000"
     sodipodi:insensitive="true">
    <path
       id="path596"
       style="display:inline;fill:#000000;stroke-width:3.09019"
       d="M 47.569854,23.339866 15.955709,50.8257 15.442687,84.328967 41.467924,83.900443 41.55241,68.606391 53.92526,68.865906 v 15.463061 l 24.739668,-0.344026 -0.259514,-33.93179 z m 11.081244,27.703115 h 6.868441 c 0.856543,0 1.551135,0.688554 1.551135,1.545097 v 6.958974 c 0,0.85654 -0.694592,1.545098 -1.551135,1.545098 h -6.868441 c -0.85654,0 -1.545097,-0.688558 -1.545097,-1.545098 v -6.958974 c 0,-0.856543 0.688557,-1.545097 1.545097,-1.545097 z m -29.634489,0.386274 h 6.868445 c 0.856534,0 1.545097,0.688554 1.545097,1.545098 v 6.958974 c 0,0.856534 -0.688563,1.545097 -1.545097,1.545097 h -6.868445 c -0.856534,0 -1.551132,-0.688563 -1.551132,-1.545097 v -6.958974 c 0,-0.856544 0.694598,-1.545098 1.551132,-1.545098 z m 15.028491,0.04224 h 6.874476 c 0.856543,0 1.545097,0.688554 1.545097,1.545098 v 6.958974 c 0,0.856537 -0.688554,1.545097 -1.545097,1.545097 H 44.0451 c -0.856543,0 -1.545097,-0.68856 -1.545097,-1.545097 v -6.958974 c 0,-0.856544 0.688554,-1.545101 1.545097,-1.545098 z m 3.437437,-33.114339 37.023181,31.95504 c 4.956725,0.163224 5.358815,-2.224115 4.638636,-5.239941 L 50.403161,11.399211 C 48.284279,9.2150238 46.165394,9.971896 44.046512,11.656902 L 5.9925213,44.986356 c -0.611803,3.265249 -0.8227706,6.24843 4.6386357,5.239939 z m 20.530257,3.951429 4.638633,4.295031 L 72.56552,4.6989541 C 71.016618,2.2793375 69.680622,3.2661729 68.35639,4.4412628 Z M 76.259255,4.6130529 c 0,0 3.21976,2.9717447 5.15404,2.7488211 2.888353,-0.3328789 5.637971,-0.5446283 8.504164,-0.4295031 1.303701,0.052348 4.466834,2.4911174 4.466834,2.4911174 V 23.7689 c 0,0 -3.431529,-2.70576 -5.755343,-2.577022 -2.805437,0.155406 -5.53928,0.408585 -8.418263,0.429503 -1.588283,0.01143 -3.951432,-2.66292 -3.951432,-2.66292 z" />
  </g>
</svg>
