<?xml version="1.0" encoding="UTF-8" standalone="no"?>
<!-- Created with Inkscape (http://www.inkscape.org/) -->

<svg
   version="1.1"
   id="svg9"
   width="512"
   height="512"
   viewBox="0 0 512 512"
   sodipodi:docname="Elementaryyellow.svg"
   inkscape:version="1.2 (dc2aedaf03, 2022-05-15)"
   xmlns:inkscape="http://www.inkscape.org/namespaces/inkscape"
   xmlns:sodipodi="http://sodipodi.sourceforge.net/DTD/sodipodi-0.dtd"
   xmlns="http://www.w3.org/2000/svg"
   xmlns:svg="http://www.w3.org/2000/svg">
  <defs
     id="defs13" />
  <sodipodi:namedview
     id="namedview11"
     pagecolor="#505050"
     bordercolor="#ffffff"
     borderopacity="1"
     inkscape:showpageshadow="0"
     inkscape:pageopacity="0"
     inkscape:pagecheckerboard="1"
     inkscape:deskcolor="#505050"
     showgrid="false"
     showguides="true"
     inkscape:zoom="8.9935145"
     inkscape:cx="34.858453"
     inkscape:cy="88.730607"
     inkscape:window-width="2560"
     inkscape:window-height="1017"
     inkscape:window-x="1220"
     inkscape:window-y="-8"
     inkscape:window-maximized="1"
     inkscape:current-layer="layer1">
    <sodipodi:guide
       position="49.690418,461.0516"
       orientation="0,-1"
       id="guide69"
       inkscape:locked="false" />
    <sodipodi:guide
       position="49.690418,400.6683"
       orientation="1,0"
       id="guide71"
       inkscape:locked="false" />
    <sodipodi:guide
       position="24.923833,510.11302"
       orientation="1,0"
       id="guide236"
       inkscape:locked="false" />
    <sodipodi:guide
       position="-12.815725,486.91892"
       orientation="0,-1"
       id="guide238"
       inkscape:locked="false" />
  </sodipodi:namedview>
  <g
     inkscape:groupmode="layer"
     id="layer1"
     inkscape:label="Image 1"
     style="display:inline">
    <path
       id="rect234"
       style="display:inline;fill:#ffff00;stroke-width:2.49467"
       d="m 1.6450199,10.780889 c -0.84311359,0 -1.52400942,0.680896 -1.52400942,1.524012 v 86.880617 c 0,0.843112 0.68089583,1.517992 1.52400942,1.517992 H 33.03481 l 6.84901,11.31863 7.529693,12.45713 7.0237,-12.75229 6.065921,-11.02347 h 37.991823 c 0.843115,0 1.524013,-0.67488 1.524013,-1.517992 V 12.304901 c 0,-0.843116 -0.680898,-1.524012 -1.524013,-1.524012 z" />
  </g>
  <g
     inkscape:groupmode="layer"
     id="layer2"
     inkscape:label="Image 2"
     style="display:inline;fill:#000000">
    <path
       id="path596"
       style="display:inline;fill:#000000;stroke-width:3.08416"
       d="m 47.588203,33.857894 -31.552431,27.432181 -0.51202,33.437866 25.974433,-0.427687 0.08433,-15.264196 12.348698,0.259008 V 94.727941 L 78.622577,94.384587 78.36357,60.519034 Z m 11.059612,27.649039 h 6.855033 c 0.854872,0 1.548109,0.68721 1.548109,1.54208 v 6.94539 c 0,0.854868 -0.693237,1.542082 -1.548109,1.542082 h -6.855033 c -0.854867,0 -1.542079,-0.687214 -1.542079,-1.542082 v -6.94539 c 0,-0.85487 0.687212,-1.54208 1.542079,-1.54208 z m -29.576638,0.38552 h 6.855037 c 0.854861,0 1.54208,0.68721 1.54208,1.542082 v 6.945388 c 0,0.854863 -0.687219,1.542082 -1.54208,1.542082 h -6.855037 c -0.854863,0 -1.548105,-0.687219 -1.548105,-1.542082 v -6.945388 c 0,-0.854872 0.693242,-1.542082 1.548105,-1.542082 z m 14.999153,0.04215 h 6.861057 c 0.85487,0 1.54208,0.68721 1.54208,1.542082 v 6.945387 c 0,0.854866 -0.68721,1.542083 -1.54208,1.542083 H 44.07033 c -0.85487,0 -1.54208,-0.687217 -1.54208,-1.542083 v -6.945387 c 0,-0.854872 0.68721,-1.542085 1.54208,-1.542082 z m 3.430727,-33.049691 36.950909,31.892664 c 4.947049,0.162896 5.348354,-2.219775 4.629582,-5.229714 L 50.415978,21.94055 c -2.114745,-2.179924 -4.229492,-1.424529 -6.34424,0.257187 L 6.092034,55.462131 c -0.6106087,3.258875 -0.8211644,6.236233 4.629581,5.22971 z m 20.49018,3.943715 4.629579,4.286649 -0.08574,-21.861905 C 70.9892,12.838478 69.655813,13.823387 68.334166,14.996184 Z m 8.230364,-17.660991 c 0,0 3.213475,2.965944 5.143979,2.743455 2.882714,-0.332229 5.626964,-0.543564 8.487562,-0.428663 1.301156,0.05225 4.458114,2.486255 4.458114,2.486255 V 34.28609 c 0,0 -3.424829,-2.700479 -5.744107,-2.571992 -2.799961,0.155102 -5.528466,0.407789 -8.401831,0.428666 -1.585181,0.01142 -3.943717,-2.657723 -3.943717,-2.657723 z" />
  </g>
</svg>
