<?xml version="1.0" encoding="UTF-8" standalone="no"?>
<!-- Created with Inkscape (http://www.inkscape.org/) -->

<svg
   version="1.1"
   id="svg9"
   width="512"
   height="512"
   viewBox="0 0 512 512"
   sodipodi:docname="Elementaryred.svg"
   inkscape:version="1.2 (dc2aedaf03, 2022-05-15)"
   xmlns:inkscape="http://www.inkscape.org/namespaces/inkscape"
   xmlns:sodipodi="http://sodipodi.sourceforge.net/DTD/sodipodi-0.dtd"
   xmlns="http://www.w3.org/2000/svg"
   xmlns:svg="http://www.w3.org/2000/svg">
  <defs
     id="defs13" />
  <sodipodi:namedview
     id="namedview11"
     pagecolor="#505050"
     bordercolor="#ffffff"
     borderopacity="1"
     inkscape:showpageshadow="0"
     inkscape:pageopacity="0"
     inkscape:pagecheckerboard="1"
     inkscape:deskcolor="#505050"
     showgrid="false"
     showguides="true"
     inkscape:zoom="4.4967573"
     inkscape:cx="-54.372515"
     inkscape:cy="104.075"
     inkscape:window-width="2560"
     inkscape:window-height="1017"
     inkscape:window-x="1220"
     inkscape:window-y="-8"
     inkscape:window-maximized="1"
     inkscape:current-layer="layer1">
    <sodipodi:guide
       position="49.690418,461.0516"
       orientation="0,-1"
       id="guide69"
       inkscape:locked="false" />
    <sodipodi:guide
       position="49.690418,400.6683"
       orientation="1,0"
       id="guide71"
       inkscape:locked="false" />
    <sodipodi:guide
       position="24.923833,510.11302"
       orientation="1,0"
       id="guide236"
       inkscape:locked="false" />
    <sodipodi:guide
       position="-12.815725,486.91892"
       orientation="0,-1"
       id="guide238"
       inkscape:locked="false" />
  </sodipodi:namedview>
  <g
     inkscape:groupmode="layer"
     id="layer1"
     inkscape:label="Image 1"
     style="display:inline">
    <path
       id="rect234"
       style="display:inline;fill:#ff0000;stroke-width:2.49711"
       d="m 1.5353191,10.669698 c -0.84393815,0 -1.52549986,0.681563 -1.52549986,1.525501 v 86.965584 c 0,0.843937 0.68156171,1.519477 1.52549986,1.519477 H 32.955808 l 6.855707,11.3297 7.537058,12.46931 7.030568,-12.76476 6.071853,-11.03425 h 38.028978 c 0.843939,0 1.525498,-0.67554 1.525498,-1.519477 V 12.195199 c 0,-0.843938 -0.681559,-1.525501 -1.525498,-1.525501 z" />
  </g>
  <g
     inkscape:groupmode="layer"
     id="layer2"
     inkscape:label="Image 2"
     style="display:inline">
    <path
       id="path596"
       style="display:inline;fill:#ffffff;stroke-width:3.08718"
       d="m 47.523433,33.769273 -31.583289,27.459008 -0.51252,33.470565 25.999835,-0.428105 0.0844,-15.279124 12.360773,0.259261 V 94.698846 L 78.588154,94.355157 78.328893,60.456486 Z m 11.070429,27.676076 h 6.861737 c 0.855707,0 1.549621,0.687883 1.549621,1.54359 v 6.952181 c 0,0.855704 -0.693914,1.54359 -1.549621,1.54359 h -6.861737 c -0.855704,0 -1.543589,-0.687886 -1.543589,-1.54359 v -6.952181 c 0,-0.855707 0.687885,-1.54359 1.543589,-1.54359 z m -29.605564,0.385897 h 6.861741 c 0.855697,0 1.543589,0.687883 1.543589,1.54359 v 6.952181 c 0,0.855698 -0.687892,1.54359 -1.543589,1.54359 h -6.861741 c -0.855699,0 -1.549619,-0.687892 -1.549619,-1.54359 v -6.952181 c 0,-0.855707 0.69392,-1.54359 1.549619,-1.54359 z m 15.013822,0.0422 h 6.867765 c 0.855708,0 1.54359,0.687882 1.54359,1.543589 v 6.952181 c 0,0.855701 -0.687882,1.54359 -1.54359,1.54359 H 44.00212 c -0.855707,0 -1.54359,-0.687889 -1.54359,-1.54359 v -6.952181 c 0,-0.855707 0.687883,-1.543593 1.54359,-1.543589 z m 3.434081,-33.082021 36.987046,31.923852 c 4.951887,0.163065 5.353585,-2.221944 4.634108,-5.234827 L 50.353975,21.840271 C 48.237161,19.658217 46.120344,20.41435 44.00353,22.097712 L 5.9866819,55.394637 c -0.6112058,3.262061 -0.8219675,6.24233 4.6341091,5.234823 z m 20.51022,3.947573 4.634105,4.290839 -0.08582,-21.883285 c -1.547389,-2.417255 -2.882081,-1.431382 -4.205021,-0.25744 z m 8.238411,-17.678264 c 0,0 3.216618,2.968845 5.14901,2.746139 2.885533,-0.332554 5.632468,-0.544097 8.495863,-0.429084 1.302429,0.0523 4.462474,2.488686 4.462474,2.488686 v 14.331409 c 0,0 -3.428179,-2.703118 -5.749725,-2.574506 -2.802698,0.155254 -5.533873,0.408187 -8.410046,0.429084 -1.586733,0.01142 -3.947576,-2.660321 -3.947576,-2.660321 z" />
  </g>
</svg>
