<?xml version="1.0" encoding="UTF-8" standalone="no"?>
<!-- Created with Inkscape (http://www.inkscape.org/) -->

<svg
   version="1.1"
   id="svg9"
   width="512"
   height="512"
   viewBox="0 0 512 512"
   sodipodi:docname="Elementarypurple.svg"
   inkscape:version="1.2 (dc2aedaf03, 2022-05-15)"
   xmlns:inkscape="http://www.inkscape.org/namespaces/inkscape"
   xmlns:sodipodi="http://sodipodi.sourceforge.net/DTD/sodipodi-0.dtd"
   xmlns="http://www.w3.org/2000/svg"
   xmlns:svg="http://www.w3.org/2000/svg">
  <defs
     id="defs13" />
  <sodipodi:namedview
     id="namedview11"
     pagecolor="#505050"
     bordercolor="#ffffff"
     borderopacity="1"
     inkscape:showpageshadow="0"
     inkscape:pageopacity="0"
     inkscape:pagecheckerboard="1"
     inkscape:deskcolor="#505050"
     showgrid="false"
     showguides="true"
     inkscape:zoom="12.71875"
     inkscape:cx="141.79852"
     inkscape:cy="110.93857"
     inkscape:window-width="2560"
     inkscape:window-height="1017"
     inkscape:window-x="1220"
     inkscape:window-y="-8"
     inkscape:window-maximized="1"
     inkscape:current-layer="layer2">
    <sodipodi:guide
       position="49.690418,461.0516"
       orientation="0,-1"
       id="guide69"
       inkscape:locked="false" />
    <sodipodi:guide
       position="49.690418,400.6683"
       orientation="1,0"
       id="guide71"
       inkscape:locked="false" />
    <sodipodi:guide
       position="24.923833,510.11302"
       orientation="1,0"
       id="guide236"
       inkscape:locked="false" />
    <sodipodi:guide
       position="-12.815725,486.91892"
       orientation="0,-1"
       id="guide238"
       inkscape:locked="false" />
  </sodipodi:namedview>
  <g
     inkscape:groupmode="layer"
     id="layer1"
     inkscape:label="Image 1"
     style="display:inline">
    <path
       id="rect234"
       style="display:inline;fill:#ff00ff;stroke-width:2.49601"
       d="m 1.583582,0.19525507 c -0.84356742,0 -1.52482978,0.68126329 -1.52482978,1.52483163 V 88.647473 c 0,0.843568 0.68126236,1.518805 1.52482978,1.518805 H 32.99027 l 6.852697,11.324732 7.533746,12.46383 7.02748,-12.75916 6.069187,-11.029402 h 38.012274 c 0.843569,0 1.524836,-0.675237 1.524836,-1.518805 V 1.7200867 c 0,-0.84356834 -0.681267,-1.52483163 -1.524836,-1.52483163 z" />
  </g>
  <g
     inkscape:groupmode="layer"
     id="layer2"
     inkscape:label="Image 2"
     style="display:inline;fill:#000000">
    <path
       id="path596"
       style="display:inline;fill:#000000;stroke-width:3.08582"
       d="M 47.551497,23.284684 15.982081,50.731631 15.469785,84.187496 41.4582,83.759579 41.542567,68.487166 53.897912,68.746313 V 84.187496 L 78.602577,83.843957 78.34343,49.960175 Z m 11.065567,27.66392 h 6.858722 c 0.855332,0 1.548941,0.68758 1.548941,1.542912 v 6.949128 c 0,0.855328 -0.693609,1.542911 -1.548941,1.542911 h -6.858722 c -0.855329,0 -1.542912,-0.687583 -1.542912,-1.542911 v -6.949128 c 0,-0.855332 0.687583,-1.542912 1.542912,-1.542912 z m -29.592562,0.385728 h 6.858727 c 0.855323,0 1.542912,0.68758 1.542912,1.542912 v 6.949128 c 0,0.855322 -0.687589,1.542911 -1.542912,1.542911 h -6.858727 c -0.855322,0 -1.548938,-0.687589 -1.548938,-1.542911 v -6.949128 c 0,-0.855332 0.693616,-1.542912 1.548938,-1.542912 z m 15.007228,0.04218 h 6.86475 c 0.855331,0 1.542911,0.68758 1.542911,1.542912 v 6.949128 c 0,0.855325 -0.68758,1.542911 -1.542911,1.542911 h -6.86475 c -0.855331,0 -1.542911,-0.687586 -1.542911,-1.542911 v -6.949128 c 0,-0.855332 0.68758,-1.542915 1.542911,-1.542912 z m 3.432574,-33.067489 36.970799,31.909831 c 4.949713,0.162993 5.351234,-2.220969 4.632074,-5.232528 L 50.380796,11.360923 C 48.264912,9.1798259 46.149025,9.9356273 44.033141,11.618249 l -38.0001512,33.2823 c -0.6109374,3.260628 -0.8216065,6.239589 4.6320732,5.232525 z m 20.501211,3.945839 4.63207,4.288954 -0.08579,-21.8736732 C 70.965089,2.2539525 69.630982,3.2393916 68.308624,4.412819 Z M 76.200307,4.5843661 c 0,0 3.215206,2.9675401 5.146749,2.744932 2.884266,-0.332408 5.629994,-0.5438578 8.492132,-0.4288955 1.301856,0.052274 4.460514,2.4875929 4.460514,2.4875929 V 23.71311 c 0,0 -3.426674,-2.701931 -5.7472,-2.573375 -2.801468,0.155186 -5.531443,0.408007 -8.406353,0.428895 -1.586036,0.01142 -3.945842,-2.659152 -3.945842,-2.659152 z" />
  </g>
</svg>
