<?xml version="1.0" encoding="UTF-8" standalone="no"?>
<!-- Created with Inkscape (http://www.inkscape.org/) -->

<svg
   width="210mm"
   height="297mm"
   viewBox="0 0 210 297"
   version="1.1"
   id="svg151"
   inkscape:version="1.2 (dc2aedaf03, 2022-05-15)"
   sodipodi:docname="hostingblue.svg"
   xmlns:inkscape="http://www.inkscape.org/namespaces/inkscape"
   xmlns:sodipodi="http://sodipodi.sourceforge.net/DTD/sodipodi-0.dtd"
   xmlns="http://www.w3.org/2000/svg"
   xmlns:svg="http://www.w3.org/2000/svg">
  <sodipodi:namedview
     id="namedview153"
     pagecolor="#505050"
     bordercolor="#ffffff"
     borderopacity="1"
     inkscape:showpageshadow="0"
     inkscape:pageopacity="0"
     inkscape:pagecheckerboard="1"
     inkscape:deskcolor="#505050"
     inkscape:document-units="mm"
     showgrid="false"
     showguides="true"
     inkscape:zoom="2.1089995"
     inkscape:cx="581.55538"
     inkscape:cy="263.63212"
     inkscape:window-width="2560"
     inkscape:window-height="1017"
     inkscape:window-x="1220"
     inkscape:window-y="-8"
     inkscape:window-maximized="1"
     inkscape:current-layer="layer2">
    <sodipodi:guide
       position="51.80645,246.61291"
       orientation="0,-1"
       id="guide155"
       inkscape:locked="false" />
    <sodipodi:guide
       position="49.677418,224.25807"
       orientation="1,0"
       id="guide157"
       inkscape:locked="false" />
    <sodipodi:guide
       position="24.965431,287.96729"
       orientation="1,0"
       id="guide429"
       inkscape:locked="false" />
  </sodipodi:namedview>
  <defs
     id="defs148" />
  <g
     inkscape:groupmode="layer"
     id="layer2"
     inkscape:label="Background"
     style="display:inline"
     transform="matrix(2.8289791,0,0,2.8289791,0.57363372,-29.987666)">
    <path
       id="path427"
       style="fill:#0000ff;stroke-width:0.37639"
       inkscape:transform-center-x="-0.063953554"
       inkscape:transform-center-y="1.8426713"
       d="m 35.698335,49.474867 -3.1916,-5.749559 -3.1916,-5.749557 6.575062,0.110772 6.575064,0.110773 -3.383464,5.638785 z M -0.12717276,16.395849 H 70.262671 c 0.103312,1.2e-5 0.186465,0.08317 0.186465,0.186463 l -10e-7,21.72296 c -1.2e-5,0.103312 -0.08317,0.186462 -0.186464,0.186462 H -0.12717277 c -0.10330087,-1.2e-5 -0.18646322,-0.08317 -0.18646324,-0.186463 l 4e-8,-21.72296 c -1.45e-6,-0.103297 0.0831633,-0.186462 0.18646321,-0.186462 z" />
  </g>
  <g
     inkscape:label="Layer 1"
     inkscape:groupmode="layer"
     id="layer1"
     transform="matrix(2.8289791,0,0,2.8289791,0.57363372,-29.987666)">
    <g
       id="Artwork"
       transform="matrix(0.14309109,0,0,0.14309109,2.303979,15.356714)"
       sodipodi:insensitive="true"
       style="display:inline">
      <path
         class="cls-1"
         d="m 16.25,132 c 0,-7.27 4.08,-9 10.94,-9 h 9 c 10.83,0 12.24,2.33 12.17,9.36 H 40.7 v -0.69 c 0,-1.78 -1.31,-2.3 -3.57,-2.3 h -8.3 c -4,0 -4.76,1.89 -4.76,5 V 137 c 0,3.6 0.75,5 4.35,5 h 8.13 c 3.43,0 4.46,-0.34 4.46,-3.43 h 7.61 v 2.33 c 0,4.19 -1.51,7.48 -9.16,7.48 H 27.19 c -6.86,0 -10.94,-1.72 -10.94,-9 z"
         id="path6"
         style="fill:#ffffff" />
      <path
         class="cls-1"
         d="m 68.58,123.28 h 7.61 v 8.85 h 16 v -8.85 h 7.61 v 24.82 h -7.56 v -9.39 h -16 v 9.39 h -7.66 z"
         id="path8"
         style="fill:#ffffff" />
      <path
         class="cls-1"
         d="m 131.36,123.28 h 9.91 l 13.65,24.82 h -8.47 l -2.37,-4.38 h -15.42 l -2.23,4.38 h -8.5 z m 0.14,15.09 h 9.74 L 136.3,129 Z"
         id="path10"
         style="fill:#ffffff" />
      <path
         class="cls-1"
         d="m 173,123.28 h 7.61 v 18.45 h 17.11 v 6.37 H 173 Z"
         id="path12"
         style="fill:#ffffff" />
      <path
         class="cls-1"
         d="m 216.31,123.28 h 7.61 v 18.45 H 241 v 6.37 h -24.69 z"
         id="path14"
         style="fill:#ffffff" />
      <path
         class="cls-1"
         d="m 259.62,123.28 h 27.15 V 129 h -19.54 v 4 h 18.51 v 5.14 h -18.51 v 4 h 20 v 6 h -27.61 z"
         id="path16"
         style="fill:#ffffff" />
      <path
         class="cls-1"
         d="M 307.18,123.28 H 319 l 14.3,18 h 0.07 v -18 H 341 v 24.82 h -11.8 l -14.29,-18 h -0.07 v 18 h -7.61 z"
         id="path18"
         style="fill:#ffffff" />
      <path
         class="cls-1"
         d="m 360.91,132 c 0,-7.27 4.08,-9 10.94,-9 h 11.45 c 8.64,0 9.84,3.12 9.84,8 v 0.79 h -7.48 c 0,-2.47 -1.4,-2.78 -3.84,-2.78 h -8.26 c -3.84,0 -4.83,0.93 -4.83,5.18 v 3.09 c 0,4.25 1,5.17 4.83,5.17 h 8.13 c 2,0 4,-0.31 4,-2.71 V 139 h -9.49 v -5.14 h 17.08 v 7.06 c 0,7.13 -3.71,7.48 -12.28,7.48 h -9.15 c -6.86,0 -10.94,-1.72 -10.94,-9 z"
         id="path20"
         style="fill:#ffffff" />
      <path
         class="cls-1"
         d="m 413.24,123.28 h 27.15 V 129 h -19.54 v 4 h 18.51 v 5.14 h -18.51 v 4 h 20 v 6 h -27.6 z"
         id="path22"
         style="fill:#ffffff" />
      <g
         id="IQ_Print"
         data-name="IQ Print">
        <polygon
           class="cls-1"
           points="372.01,52.27 338.95,52.27 333.86,65.64 342.12,65.64 331.94,92.36 323.68,92.36 318.59,105.73 351.65,105.73 356.74,92.36 348.48,92.36 358.66,65.64 366.92,65.64 "
           id="polygon24"
           style="fill:#ffffff" />
        <path
           class="cls-1"
           d="m 428.51,52.27 h -33.93 a 20.75,20.75 0 0 0 -19.39,13.37 v 0 l -9.39,24.64 a 11.4,11.4 0 0 0 10.65,15.45 h 35.27 a 20.69,20.69 0 0 0 11.39,-3.41 l 2.91,3.41 h 8.26 l 2.55,-6.68 -5.72,-6.69 L 440,69 A 12.32,12.32 0 0 0 428.51,52.27 Z M 414,72.32 l -5.09,13.36 4.25,5 a 10.4,10.4 0 0 1 -5.69,1.71 H 388.7 a 4.93,4.93 0 0 1 -4.61,-6.69 v 0 l 5.08,-13.37 a 10.39,10.39 0 0 1 9.7,-6.67 h 18.75 a 4.92,4.92 0 0 1 4.6,6.68 L 419.68,79 Z"
           id="path26"
           style="fill:#ffffff" />
        <path
           class="cls-1"
           d="m 273.49,52.28 a 1,1 0 0 0 -0.59,0.19 L 248.19,69.65 223.37,52.47 a 1.09,1.09 0 0 0 -0.6,-0.19 H 201 a 1,1 0 0 0 -1,0.74 1.12,1.12 0 0 0 -0.05,0.31 1,1 0 0 0 0.46,0.86 l 35.35,23.93 -38.36,25.69 a 1.06,1.06 0 0 0 -0.46,0.87 1,1 0 0 0 0,0.3 1,1 0 0 0 1,0.75 h 22.3 a 1,1 0 0 0 0.59,-0.19 l 27.36,-18.94 27.12,18.94 a 1,1 0 0 0 0.6,0.19 h 21.93 a 1.06,1.06 0 0 0 1,-0.74 1.1,1.1 0 0 0 0,-0.31 1,1 0 0 0 -0.46,-0.86 L 260.3,78.12 295.77,54.19 a 1,1 0 0 0 0.46,-0.86 1.65,1.65 0 0 0 0,-0.31 1.05,1.05 0 0 0 -1,-0.74 z"
           id="path28"
           style="fill:#ffffff" />
        <path
           class="cls-1"
           d="m 102,52.28 a 1,1 0 0 0 -0.8,0.39 l -32.68,40 -32.09,-40 A 1.07,1.07 0 0 0 35.61,52.28 H 17.3 a 1.05,1.05 0 0 0 -0.95,0.6 1,1 0 0 0 0.14,1.12 l 42.29,51.36 a 1.06,1.06 0 0 0 0.81,0.38 h 17.83 a 1.06,1.06 0 0 0 0.81,-0.38 L 121.12,54 a 1,1 0 0 0 -0.8,-1.72 z"
           id="path30"
           style="fill:#ffffff" />
        <path
           class="cls-1"
           d="m 131,52.27 a 30.78,30.78 0 0 1 -3.37,-14.5 c 0,-11.69 5.86,-21.52 13,-21.52 h 45.14 c 2.41,0 4.38,3.28 4.38,7.25 0,3.97 -2,7.26 -4.38,7.26 h -45.2 c -2.4,0 -4.23,3.27 -4.23,7 0,3.73 1.69,7.37 4.23,7.37 h 45.14 c 2.41,0 4.38,3.22 4.38,7.14 v 0 c 0,3.92 -2,7.15 -4.38,7.15 h -45.14 c -2.54,0 -4.23,3.62 -4.23,7.36 0,3.74 1.83,7 4.23,7 h 45.14 c 2.41,0 4.38,3.27 4.38,7.25 0,3.98 -2,7.25 -4.38,7.25 h -45.14 c -7.13,0 -13,-9.82 -13,-21.52 A 30.81,30.81 0 0 1 131,52.29 Z"
           id="path32"
           style="fill:#ffffff" />
        <path
           class="cls-1"
           d="m 442.68,101.91 h 0.43 a 0.9,0.9 0 0 1 0.59,0.16 3.55,3.55 0 0 1 0.77,1.05 l 0.4,0.72 h 0.9 l -0.56,-0.89 a 5.18,5.18 0 0 0 -0.67,-0.9 1.23,1.23 0 0 0 -0.39,-0.24 1.4,1.4 0 0 0 1,-0.42 1.22,1.22 0 0 0 0.35,-0.87 1.17,1.17 0 0 0 -0.21,-0.66 1.08,1.08 0 0 0 -0.57,-0.44 4,4 0 0 0 -1.16,-0.13 H 442 v 4.55 h 0.73 z m 0,-2 h 0.84 a 2.3,2.3 0 0 1 0.73,0.08 0.62,0.62 0 0 1 0.31,0.24 0.55,0.55 0 0 1 0.11,0.36 0.6,0.6 0 0 1 -0.23,0.5 1.39,1.39 0 0 1 -0.87,0.19 h -0.89 z"
           id="path34"
           style="fill:#ffffff" />
        <path
           class="cls-1"
           d="m 441.7,105.17 a 4.22,4.22 0 0 0 4.2,0 3.87,3.87 0 0 0 1.56,-1.57 4.18,4.18 0 0 0 0.56,-2.09 4.3,4.3 0 0 0 -0.56,-2.13 4,4 0 0 0 -1.58,-1.56 4.26,4.26 0 0 0 -4.15,0 3.89,3.89 0 0 0 -1.58,1.56 4.31,4.31 0 0 0 -0.57,2.13 4.18,4.18 0 0 0 0.56,2.09 3.87,3.87 0 0 0 1.56,1.57 z m -0.95,-5.43 a 3.33,3.33 0 0 1 1.32,-1.31 3.55,3.55 0 0 1 3.46,0 3.26,3.26 0 0 1 1.32,1.31 3.64,3.64 0 0 1 0.47,1.77 3.54,3.54 0 0 1 -0.46,1.74 3.37,3.37 0 0 1 -1.31,1.31 3.49,3.49 0 0 1 -3.5,0 3.37,3.37 0 0 1 -1.31,-1.31 3.54,3.54 0 0 1 -0.46,-1.74 3.64,3.64 0 0 1 0.47,-1.77 z"
           id="path36"
           style="fill:#ffffff" />
      </g>
    </g>
  </g>
</svg>
