<?xml version="1.0" encoding="UTF-8" standalone="no"?>
<!-- Created with Inkscape (http://www.inkscape.org/) -->

<svg
   width="200"
   height="100"
   viewBox="0 0 52.916665 26.458333"
   version="1.1"
   id="svg5"
   inkscape:version="1.2 (dc2aedaf03, 2022-05-15)"
   sodipodi:docname="highred.svg"
   xmlns:inkscape="http://www.inkscape.org/namespaces/inkscape"
   xmlns:sodipodi="http://sodipodi.sourceforge.net/DTD/sodipodi-0.dtd"
   xmlns="http://www.w3.org/2000/svg"
   xmlns:svg="http://www.w3.org/2000/svg">
  <sodipodi:namedview
     id="namedview7"
     pagecolor="#505050"
     bordercolor="#ffffff"
     borderopacity="1"
     inkscape:showpageshadow="0"
     inkscape:pageopacity="0"
     inkscape:pagecheckerboard="1"
     inkscape:deskcolor="#505050"
     inkscape:document-units="px"
     showgrid="false"
     showguides="true"
     inkscape:zoom="5.9651514"
     inkscape:cx="82.562867"
     inkscape:cy="58.003557"
     inkscape:window-width="1280"
     inkscape:window-height="961"
     inkscape:window-x="3780"
     inkscape:window-y="-8"
     inkscape:window-maximized="1"
     inkscape:current-layer="layer1">
    <sodipodi:guide
       position="26.455203,0.81858382"
       orientation="1,0"
       id="guide8354"
       inkscape:locked="false" />
    <sodipodi:guide
       position="39.518145,21.941974"
       orientation="1,0"
       id="guide8356"
       inkscape:locked="false" />
    <sodipodi:guide
       position="13.172715,29.845603"
       orientation="1,0"
       id="guide8358"
       inkscape:locked="false" />
    <sodipodi:guide
       position="28.752587,6.3464196"
       orientation="0,-1"
       id="guide8360"
       inkscape:locked="false" />
    <sodipodi:guide
       position="20.048387,7.9623651"
       orientation="0,-1"
       id="guide8475"
       inkscape:locked="false" />
    <sodipodi:guide
       position="18.274193,25.127688"
       orientation="0,-1"
       id="guide8477"
       inkscape:locked="false" />
    <sodipodi:guide
       position="15.834677,21.712365"
       orientation="1,0"
       id="guide8479"
       inkscape:locked="false" />
    <sodipodi:guide
       position="36.991935,19.627688"
       orientation="1,0"
       id="guide8481"
       inkscape:locked="false" />
  </sodipodi:namedview>
  <defs
     id="defs2" />
  <g
     inkscape:label="Layer 1"
     inkscape:groupmode="layer"
     id="layer1"
     transform="matrix(0.49078902,0,0,0.51505965,12.496522,-2.5864331)"
     style="opacity:0.4">
    <path
       id="rect8414"
       style="fill:#ff0000;stroke-width:0.845401"
       d="M 1.7633907,5.143019 C 1.5498115,5.143019 1.37802,5.315714 1.37802,5.5292932 V 43.669106 c 0,0.213579 0.1717915,0.385271 0.3853707,0.385271 H 20.969806 l 1.660464,2.740038 5.811096,9.590637 5.811096,-9.590637 1.660464,-2.740038 h 18.734705 c 0.213579,0 0.38537,-0.171692 0.38537,-0.385271 V 5.5292932 c 0,-0.2135792 -0.171791,-0.3862742 -0.38537,-0.3862742 z" />
    <path
       id="rect180"
       style="fill:#ffffff;stroke-width:0.0544851"
       d="m 28.450234,7.6898362 -0.63243,0.042936 0.04521,0.4289431 -3.523616,0.3431741 v 2.7026616 l 3.523614,-0.471879 -0.09043,4.590069 -9.26047,4.375697 h 19.56006 l -9.57673,-4.375696 z M 19.352039,20.216249 c -0.01489,0 -0.02684,0.01137 -0.02684,0.02549 v 15.907262 c 0,0.01411 0.01197,0.02546 0.02684,0.02546 h 17.654278 c 0.0149,0 0.02687,-0.01135 0.02687,-0.02546 V 20.241749 c 0,-0.01413 -0.01197,-0.02549 -0.02687,-0.02549 z m 10.028531,2.059046 h 1.662838 c 0.01489,0 0.02684,0.01146 0.02684,0.02561 v 4.582001 c 0,0.01413 -0.01197,0.02549 -0.02684,0.02549 H 29.38057 c -0.01489,0 -0.02684,-0.01137 -0.02684,-0.02549 v -4.582001 c 0,-0.01413 0.01197,-0.02561 0.02684,-0.02561 z m -7.498818,0.04294 h 1.617731 c 0.01489,0 0.02686,0.01137 0.02686,0.02549 v 4.49623 c 0,0.01413 -0.01197,0.02551 -0.02686,0.02551 h -1.617731 c -0.01489,0 -0.02686,-0.01137 -0.02686,-0.02551 v -4.496231 c 0,-0.01413 0.01197,-0.02549 0.02686,-0.02549 z m 3.794567,0 h 1.527311 c 0.01489,0 0.02696,0.01137 0.02696,0.02549 v 4.49623 c 0,0.01413 -0.01206,0.02551 -0.02696,0.02551 h -1.527311 c -0.01489,0 -0.02685,-0.01137 -0.02685,-0.02551 v -4.496231 c 0,-0.01413 0.01197,-0.02549 0.02685,-0.02549 z m 7.49882,0 h 1.617627 c 0.0149,0 0.02696,0.01137 0.02696,0.02549 v 4.624934 c 0,0.01413 -0.01206,0.02549 -0.02696,0.02549 h -1.617627 c -0.01489,0 -0.02685,-0.01137 -0.02685,-0.02549 v -4.624935 c 0,-0.01413 0.01197,-0.02549 0.02685,-0.02549 z M 6.839008,25.621473 c -0.014888,0 -0.026859,0.01137 -0.026859,0.02549 v 10.459102 c 0,0.0141 0.01197,0.02546 0.026859,0.02546 H 18.75622 c 0.01489,0 0.02686,-0.01135 0.02686,-0.02546 V 25.64697 c 0,-0.01413 -0.01197,-0.0255 -0.02686,-0.0255 z m 31.079288,0 c -0.0149,0 -0.02687,0.01137 -0.02687,0.02549 v 10.459102 c 0,0.0141 0.01197,0.02546 0.02687,0.02546 h 11.872108 c 0.01491,0 0.02689,-0.01135 0.02689,-0.02546 V 25.64697 c 0,-0.01413 -0.01199,-0.0255 -0.02689,-0.0255 z m -25.703597,1.758803 h 1.527308 c 0.01489,0 0.02685,0.01137 0.02685,0.02549 v 2.780262 c 0,0.01413 -0.01197,0.02549 -0.02685,0.02549 h -1.527308 c -0.01489,0 -0.02686,-0.01137 -0.02686,-0.02549 V 27.40577 c 0,-0.01413 0.01197,-0.02549 0.02686,-0.02549 z m 3.071716,0 h 1.572521 c 0.01489,0 0.02685,0.01137 0.02685,0.02549 v 2.737427 c 0,0.01413 -0.01197,0.02549 -0.02685,0.02549 h -1.572521 c -0.01489,0 -0.02684,-0.01137 -0.02684,-0.02549 V 27.40577 c 0,-0.01413 0.01197,-0.02549 0.02684,-0.02549 z m 24.484057,0 h 1.572522 c 0.0149,0 0.02687,0.01137 0.02687,0.02549 v 2.780262 c 0,0.01413 -0.01197,0.02549 -0.02687,0.02549 h -1.572522 c -0.0149,0 -0.02687,-0.01137 -0.02687,-0.02549 V 27.40577 c 0,-0.01413 0.01197,-0.02549 0.02687,-0.02549 z m -30.9889695,0.04293 h 1.4820995 c 0.01489,0 0.02696,0.01137 0.02696,0.02549 v 2.651557 c 0,0.01413 -0.01206,0.0255 -0.02696,0.0255 H 8.7815025 c -0.014887,0 -0.026847,-0.01137 -0.026847,-0.0255 v -2.651557 c 0,-0.01413 0.01197,-0.02549 0.026847,-0.02549 z m 37.3132525,0 h 1.52731 c 0.0149,0 0.02687,0.01137 0.02687,0.02549 v 2.694492 c 0,0.01414 -0.01197,0.02549 -0.02687,0.02549 h -1.52731 c -0.0149,0 -0.02687,-0.01137 -0.02687,-0.02549 v -2.694492 c 0,-0.01413 0.01197,-0.02549 0.02687,-0.02549 z m -3.117037,0.04283 h 1.527419 c 0.0149,0 0.02687,0.01137 0.02687,0.02549 v 2.651658 c 0,0.01413 -0.01197,0.0255 -0.02687,0.0255 h -1.527419 c -0.0149,0 -0.02687,-0.01137 -0.02687,-0.0255 v -2.651658 c 0,-0.01413 0.01197,-0.02549 0.02687,-0.02549 z m -17.346505,1.3728 h 5.14114 c 0.01489,0 0.02685,0.01137 0.02685,0.02549 v 6.040572 c 0,0.01411 -0.01197,0.02546 -0.02685,0.02546 h -5.14114 c -0.01489,0 -0.02696,-0.01135 -0.02696,-0.02546 v -6.040576 c 0,-0.01413 0.01206,-0.02551 0.02696,-0.02551 z m -3.749461,0.04283 h 1.572521 c 0.01489,0 0.02684,0.01146 0.02684,0.0256 v 4.882228 c 0,0.01411 -0.01197,0.02556 -0.02684,0.02556 h -1.572521 c -0.01489,0 -0.02686,-0.01135 -0.02686,-0.02556 v -4.882238 c 0,-0.01413 0.01197,-0.02561 0.02686,-0.02561 z m 11.338597,0.04294 h 1.527309 c 0.0149,0 0.02687,0.01137 0.02687,0.02549 v 4.79656 c 0,0.01411 -0.01197,0.02556 -0.02687,0.02556 h -1.527309 c -0.01489,0 -0.02697,-0.01135 -0.02697,-0.02556 v -4.796565 c 0,-0.01414 0.01208,-0.02549 0.02697,-0.02549 z m -21.00565,2.573959 h 1.527308 c 0.01489,0 0.02685,0.01137 0.02685,0.02551 v 2.823197 c 0,0.01411 -0.01197,0.02556 -0.02685,0.02556 h -1.527308 c -0.01489,0 -0.02686,-0.01135 -0.02686,-0.02556 v -2.823197 c 0,-0.01413 0.01197,-0.02551 0.02686,-0.02551 z m -3.568725,0.04283 h 1.617628 c 0.01489,0 0.02696,0.01137 0.02696,0.02549 v 2.737426 c 0,0.01411 -0.01206,0.02546 -0.02696,0.02546 H 8.645974 c -0.014887,0 -0.026847,-0.01135 -0.026847,-0.02546 v -2.737426 c 0,-0.01413 0.01197,-0.02549 0.026847,-0.02549 z m 6.685654,0.04294 h 1.662837 c 0.01489,0 0.02684,0.01137 0.02684,0.02549 v 2.694491 c 0,0.01411 -0.01197,0.02546 -0.02684,0.02546 h -1.662837 c -0.01489,0 -0.02685,-0.01135 -0.02685,-0.02546 v -2.694491 c 0,-0.01413 0.01197,-0.02549 0.02685,-0.02549 z m 24.438844,0 h 1.61763 c 0.0149,0 0.02687,0.01137 0.02687,0.02549 v 2.694491 c 0,0.01411 -0.01197,0.02546 -0.02687,0.02546 h -1.61763 c -0.0149,0 -0.02687,-0.01135 -0.02687,-0.02546 v -2.694491 c 0,-0.01413 0.01197,-0.02549 0.02687,-0.02549 z m 6.233964,0 h 1.707947 c 0.0149,0 0.02687,0.01137 0.02687,0.02549 v 2.737417 c 0,0.0141 -0.01197,0.02556 -0.02687,0.02556 h -1.707947 c -0.0149,0 -0.02697,-0.01135 -0.02697,-0.02556 v -2.737417 c 0,-0.01413 0.01206,-0.02549 0.02697,-0.02549 z m -3.117032,0.04293 h 1.617733 c 0.0149,0 0.02687,0.01137 0.02687,0.02549 v 2.651564 c 0,0.0141 -0.01197,0.02546 -0.02687,0.02546 h -1.617733 c -0.0149,0 -0.02687,-0.01135 -0.02687,-0.02546 v -2.65156 c 0,-0.01413 0.01197,-0.02549 0.02687,-0.02549 z M 6.7958952,37.2898 c -0.016029,0 -0.028947,0.01227 -0.028947,0.0275 v 1.146272 c 0,0.01524 0.012918,0.02741 0.028947,0.02741 H 49.83352 c 0.01601,0 0.02895,-0.01217 0.02895,-0.02741 v -1.146269 c 0,-0.01524 -0.0129,-0.0275 -0.02895,-0.0275 z m 0.045214,2.359483 c -0.016029,0 -0.028947,0.01227 -0.028947,0.0275 v 1.146179 c 0,0.01524 0.012918,0.0275 0.028947,0.0275 H 49.878625 c 0.01601,0 0.02895,-0.01227 0.02895,-0.0275 v -1.146179 c 0,-0.01524 -0.0129,-0.0275 -0.02895,-0.0275 z" />
  </g>
</svg>
