<?xml version="1.0" encoding="UTF-8" standalone="no"?>
<!-- Created with Inkscape (http://www.inkscape.org/) -->

<svg
   width="200"
   height="100"
   viewBox="0 0 52.916665 26.458333"
   version="1.1"
   id="svg151"
   sodipodi:docname="hosting.svg"
   inkscape:version="1.2 (dc2aedaf03, 2022-05-15)"
   xmlns:inkscape="http://www.inkscape.org/namespaces/inkscape"
   xmlns:sodipodi="http://sodipodi.sourceforge.net/DTD/sodipodi-0.dtd"
   xmlns="http://www.w3.org/2000/svg"
   xmlns:svg="http://www.w3.org/2000/svg">
  <sodipodi:namedview
     id="namedview173"
     pagecolor="#505050"
     bordercolor="#ffffff"
     borderopacity="1"
     inkscape:showpageshadow="0"
     inkscape:pageopacity="0"
     inkscape:pagecheckerboard="1"
     inkscape:deskcolor="#505050"
     inkscape:document-units="px"
     showgrid="false"
     inkscape:zoom="8"
     inkscape:cx="79.875"
     inkscape:cy="59.875"
     inkscape:window-width="3840"
     inkscape:window-height="2066"
     inkscape:window-x="3829"
     inkscape:window-y="-11"
     inkscape:window-maximized="1"
     inkscape:current-layer="layer1"
     showguides="true">
    <sodipodi:guide
       position="199.41935,-26.412623"
       orientation="1,0"
       id="guide808"
       inkscape:locked="false" />
    <sodipodi:guide
       position="101.12903,-73.251343"
       orientation="0,-1"
       id="guide810"
       inkscape:locked="false" />
    <sodipodi:guide
       position="26.408156,23.133791"
       orientation="1,0"
       id="guide5993"
       inkscape:locked="false" />
    <sodipodi:guide
       position="30.493228,6.6145832"
       orientation="0,-1"
       id="guide6721"
       inkscape:locked="false" />
    <sodipodi:guide
       position="3.4402721,21.224462"
       orientation="1,0"
       id="guide6834"
       inkscape:locked="false" />
    <sodipodi:guide
       position="49.477821,21.00546"
       orientation="1,0"
       id="guide6836"
       inkscape:locked="false" />
    <sodipodi:guide
       position="-1.4221354,8.9627603"
       orientation="0,-1"
       id="guide6838"
       inkscape:locked="false" />
    <sodipodi:guide
       position="-2.8442708,24.04401"
       orientation="0,-1"
       id="guide6840"
       inkscape:locked="false" />
  </sodipodi:namedview>
  <defs
     id="defs148" />
  <g
     id="layer1"
     transform="matrix(1.0620936,0,0,1.1348173,0.46625377,-18.533025)">
    <path
       id="path6830"
       style="fill:#808080;stroke-width:0.79374999;stroke:#000000;stroke-opacity:1;stroke-dasharray:none"
       inkscape:transform-center-x="0.031363358"
       inkscape:transform-center-y="1.8389731"
       d="M 0.14727783,1.0663631 C 0.0656771,1.0663631 0,1.1320402 0,1.213641 v 19.526973 c 0,0.0816 0.0656771,0.147795 0.14727783,0.147795 H 22.457544 l 0.671277,1.140499 3.279386,5.571236 3.185335,-5.625496 0.61495,-1.086239 H 52.79471 c 0.0816,0 0.147278,-0.06619 0.147278,-0.147795 V 1.213641 c 0,-0.081601 -0.06568,-0.1472779 -0.147278,-0.1472779 z"
       transform="matrix(0.94153659,0,0,0.8811991,-0.43899499,15.391607)"
       inkscape:label="Background" />
    <path
       id="polygon24"
       style="display:inline;fill:#ffffff;stroke-width:0.100349"
       class="cls-1"
       inkscape:label="Text"
       d="m 15.289334,18.462655 c -0.716759,0 -1.304774,0.98631 -1.304774,2.158967 a 3.0898926,3.0876353 0 0 0 0.337969,1.454149 v 0.0023 a 3.0929042,3.0906446 0 0 0 -0.344283,1.451422 c 0,1.17366 0.589506,2.158968 1.30526,2.158968 h 4.531503 c 0.23892,0 0.439457,-0.328283 0.439457,-0.727528 0,-0.399244 -0.197525,-0.727073 -0.439457,-0.727073 h -4.531503 c -0.240927,0 -0.424889,-0.326927 -0.424889,-0.702096 0,-0.37517 0.169908,-0.738428 0.424889,-0.738428 h 4.531503 c 0.23892,0 0.439457,-0.324309 0.439457,-0.717536 0,-0.393228 -0.197525,-0.716175 -0.439457,-0.716175 h -4.531503 c -0.254981,0 -0.424889,-0.365168 -0.424889,-0.739335 0,-0.374167 0.183962,-0.702096 0.424889,-0.702096 h 4.537331 c 0.238918,0 0.439942,-0.329739 0.439942,-0.727982 0,-0.398243 -0.198012,-0.727527 -0.439942,-0.727527 z M 35.197938,22.075771 34.6871,23.41729 h 0.829383 l -1.022162,2.680317 H 33.664938 L 33.1541,27.438675 h 3.318991 l 0.510838,-1.341068 h -0.829384 l 1.022162,-2.680317 h 0.828899 l 0.511323,-1.341519 z m 5.584742,0 a 2.0830173,2.0814956 0 0 0 -1.94672,1.341519 l -0.942525,2.471414 a 1.1444047,1.1435686 0 0 0 1.069264,1.549971 h 3.540418 a 2.0769941,2.0754768 0 0 0 1.14356,-0.341964 l 0.291837,0.341964 h 0.829384 l 0.255904,-0.669851 -0.573964,-0.671217 0.892024,-2.343346 a 1.2367601,1.2358567 0 0 0 -1.153271,-1.67849 z m -37.8738873,0.0014 a 0.10540569,0.10532869 0 0 0 -0.095175,0.05995 0.10038637,0.10031304 0 0 0 0.013597,0.112625 l 4.2454921,5.151733 a 0.10640956,0.10633182 0 0 0 0.081579,0.03814 h 1.7898757 a 0.10640956,0.10633182 0 0 0 0.081093,-0.03814 l 4.3057055,-5.15174 a 0.10038637,0.10031304 0 0 0 -0.08061,-0.172572 h -1.83892 a 0.10038637,0.10031304 0 0 0 -0.08012,0.03906 L 8.0506793,26.128491 4.8292914,22.116188 a 0.10741342,0.10733494 0 0 0 -0.08255,-0.03906 z m 18.4411593,0 a 0.10038637,0.10031304 0 0 0 -0.100517,0.07402 0.11243274,0.11235061 0 0 0 -0.0053,0.03134 0.10038637,0.10031304 0 0 0 0.04662,0.08629 l 3.548674,2.400115 -3.851195,2.577229 a 0.10640956,0.10633182 0 0 0 -0.04613,0.0872 0.10038637,0.10031304 0 0 0 0,0.02998 0.10038637,0.10031304 0 0 0 0.100517,0.07538 h 2.238558 a 0.10038637,0.10031304 0 0 0 0.05924,-0.01908 l 2.746484,-1.899656 2.722689,1.899656 a 0.10038637,0.10031304 0 0 0 0.06021,0.01908 h 2.201168 a 0.10640956,0.10633182 0 0 0 0.100517,-0.07403 0.11042501,0.11034435 0 0 0 0,-0.03134 0.10038637,0.10031304 0 0 0 -0.04613,-0.08629 l -3.822545,-2.578137 3.560813,-2.400115 a 0.10038637,0.10031304 0 0 0 0.04613,-0.08629 0.16563752,0.16551652 0 0 0 0,-0.03134 0.10540569,0.10532869 0 0 0 -0.100517,-0.07402 h -2.18223 a 0.10038637,0.10031304 0 0 0 -0.05924,0.01907 L 26.0869,23.819228 23.595349,22.096231 a 0.10942115,0.10934121 0 0 0 -0.06021,-0.01907 z m 19.863445,1.341975 h 1.882137 a 0.49390096,0.49354015 0 0 1 0.461794,0.670305 l -0.254934,0.668038 -0.570565,-0.670308 -0.510838,1.340159 0.426831,0.501821 a 1.0440183,1.0432555 0 0 1 -0.571536,0.171211 h -1.88408 A 0.49490483,0.49454327 0 0 1 39.729442,25.42958 l 0.509866,-1.34152 a 1.0430144,1.0422525 0 0 1 0.974089,-0.668944 z m 4.467406,3.174419 a 0.42764596,0.42733354 0 0 0 -0.165101,0.05176 0.390503,0.39021772 0 0 0 -0.158787,0.156223 0.43266528,0.4323492 0 0 0 -0.05681,0.213899 0.41961505,0.41930848 0 0 0 0.05584,0.209811 0.38849527,0.38821145 0 0 0 0.156845,0.157132 0.4236305,0.42332102 0 0 0 0.42149,0 0.38849527,0.38821145 0 0 0 0.156845,-0.157132 0.41961505,0.41930848 0 0 0 0.05584,-0.209811 0.43166141,0.43134607 0 0 0 -0.05584,-0.213899 0.4015455,0.40125215 0 0 0 -0.158787,-0.156223 0.42764596,0.42733354 0 0 0 -0.251534,-0.05176 z m 0.0063,0.06948 a 0.35637163,0.35611128 0 0 1 0.210259,0.04359 0.32725958,0.32702049 0 0 1 0.132565,0.131246 0.3654064,0.36513947 0 0 1 0.0471,0.177567 0.35536777,0.35510815 0 0 1 -0.04613,0.174388 0.33830208,0.33805494 0 0 1 -0.131594,0.131701 0.35034845,0.35009249 0 0 1 -0.351565,0 0.33830208,0.33805494 0 0 1 -0.131595,-0.131701 0.35536777,0.35510815 0 0 1 -0.04613,-0.174388 0.3654064,0.36513947 0 0 1 0.0471,-0.177567 0.33428663,0.33404241 0 0 1 0.132565,-0.131246 0.35637163,0.35611128 0 0 1 0.137421,-0.04359 z m -0.144219,0.129883 v 0.456408 h 0.07332 l -0.0053,-0.193917 h 0.04322 a 0.09034774,0.09028173 0 0 1 0.05924,0.01635 0.35637163,0.35611128 0 0 1 0.07769,0.105355 l 0.03982,0.0722 h 0.09032 l -0.05584,-0.08947 a 0.52000142,0.51962154 0 0 0 -0.0675,-0.09038 0.12347524,0.12338503 0 0 0 -0.03933,-0.02408 0.14054092,0.14043825 0 0 0 0.100516,-0.04223 0.12247138,0.12238191 0 0 0 0.03496,-0.0872 0.11745206,0.11736626 0 0 0 -0.02088,-0.06629 0.10841728,0.10833808 0 0 0 -0.0573,-0.04404 0.4015455,0.40125215 0 0 0 -0.116541,-0.01271 z m 0.06798,0.06222 h 0.08449 a 0.23088866,0.23072 0 0 1 0.07332,0.0077 0.06223955,0.06219407 0 0 1 0.03108,0.02407 0.05521251,0.05517217 0 0 1 0.01117,0.03635 0.06023182,0.06018781 0 0 1 -0.02331,0.04995 0.13953706,0.13943513 0 0 1 -0.08741,0.01908 h -0.08935 z M 3.9018192,29.171207 c -0.6886498,0 -1.0983991,0.173551 -1.0983991,0.902826 v 0.740243 c 0,0.730278 0.4097493,0.902824 1.0983991,0.902824 h 1.2314501 c 0.767955,0 0.9197028,-0.329922 0.9197028,-0.750232 V 30.732986 H 5.2891428 c 0,0.309967 -0.1033868,0.344235 -0.4477117,0.344235 H 4.0251584 c -0.3613905,0 -0.4370288,-0.140695 -0.4370288,-0.50182 v -0.263855 c 0,-0.311972 0.076759,-0.501367 0.4783038,-0.501367 H 4.899216 c 0.2268731,0 0.3583636,0.05216 0.3583636,0.230701 v 0.06903 h 0.7691708 c 0.00703,-0.7052 -0.134555,-0.938703 -1.2217383,-0.938703 z m 34.5990858,0 c -0.68865,0 -1.098399,0.173551 -1.098399,0.902826 v 0.74206 c 0,0.730277 0.409749,0.902825 1.098399,0.902825 h 0.918245 c 0.860312,0 1.232908,-0.03501 1.232908,-0.750234 v -0.708 h -1.71461 v 0.515445 h 0.952722 v 0.07402 c 0,0.24075 -0.200808,0.272027 -0.40158,0.272027 h -0.816273 c -0.384479,0 -0.484616,-0.09229 -0.484616,-0.518625 v -0.309717 c 0,-0.426329 0.09913,-0.519987 0.484616,-0.519987 h 0.829384 c 0.244942,0 0.385556,0.03106 0.385556,0.27884 h 0.750718 v -0.07902 c 0,-0.489529 -0.120347,-0.802463 -0.987685,-0.802463 z m -30.4443986,0.02815 v 2.48958 h 0.7691707 v -0.941881 h 1.6058379 v 0.941881 h 0.758974 v -2.48958 h -0.76383 v 0.887839 H 8.8203357 v -0.887839 z m 6.3024416,0 -1.348477,2.48958 h 0.853663 l 0.223856,-0.439151 h 1.547567 l 0.237938,0.439151 h 0.850264 l -1.370328,-2.48958 z m 4.179938,0 v 2.48958 h 2.481352 v -0.638971 h -1.717523 v -1.850609 z m 4.34795,0 v 2.48958 h 2.47844 v -0.638971 h -1.714611 v -1.850609 z m 4.347466,0 v 2.493667 h 2.771733 v -0.601728 h -2.007904 v -0.401455 h 1.858344 v -0.515447 h -1.858344 v -0.401457 h 1.961774 v -0.573575 z m 4.774297,0 0.0053,2.48958 h 0.763828 v -1.805651 h 0.0068 l 1.434911,1.805651 h 1.184348 V 29.19936 h -0.765734 v 1.805649 h -0.0073 L 33.195363,29.19936 Z m 10.646993,0 0.001,2.493667 h 2.770763 v -0.601728 h -2.007419 v -0.401455 h 1.857858 v -0.515447 h -1.857858 v -0.401457 h 1.961288 v -0.573575 z m -27.800859,0.573575 0.495784,0.940063 H 14.37303 Z" />
  </g>
</svg>
