<?xml version="1.0" encoding="UTF-8" standalone="no"?>
<!-- Created with Inkscape (http://www.inkscape.org/) -->

<svg
   width="200"
   height="100"
   viewBox="0 0 52.916665 26.458333"
   version="1.1"
   id="svg584"
   inkscape:version="1.2 (dc2aedaf03, 2022-05-15)"
   sodipodi:docname="Middlepurple.svg"
   xmlns:inkscape="http://www.inkscape.org/namespaces/inkscape"
   xmlns:sodipodi="http://sodipodi.sourceforge.net/DTD/sodipodi-0.dtd"
   xmlns="http://www.w3.org/2000/svg"
   xmlns:svg="http://www.w3.org/2000/svg">
  <sodipodi:namedview
     id="namedview586"
     pagecolor="#505050"
     bordercolor="#ffffff"
     borderopacity="1"
     inkscape:showpageshadow="0"
     inkscape:pageopacity="0"
     inkscape:pagecheckerboard="1"
     inkscape:deskcolor="#505050"
     inkscape:document-units="px"
     showgrid="false"
     showguides="true"
     inkscape:zoom="5.9651514"
     inkscape:cx="99.494541"
     inkscape:cy="52.136145"
     inkscape:window-width="1280"
     inkscape:window-height="961"
     inkscape:window-x="3780"
     inkscape:window-y="-8"
     inkscape:window-maximized="1"
     inkscape:current-layer="layer3">
    <sodipodi:guide
       position="27.944974,7.9224409"
       orientation="0,-1"
       id="guide588"
       inkscape:locked="false" />
    <sodipodi:guide
       position="39.674963,8.8790309"
       orientation="1,0"
       id="guide590"
       inkscape:locked="false" />
    <sodipodi:guide
       position="27.694065,6.5894876"
       orientation="0,-1"
       id="guide873"
       inkscape:locked="false" />
    <sodipodi:guide
       position="13.235442,9.4749394"
       orientation="1,0"
       id="guide875"
       inkscape:locked="false" />
    <sodipodi:guide
       position="37.04042,8.5183495"
       orientation="1,0"
       id="guide12240"
       inkscape:locked="false" />
    <sodipodi:guide
       position="26.470885,10.149257"
       orientation="1,0"
       id="guide12242"
       inkscape:locked="false" />
    <sodipodi:guide
       position="15.869985,10.08653"
       orientation="1,0"
       id="guide12244"
       inkscape:locked="false" />
    <sodipodi:guide
       position="15.227031,25.109698"
       orientation="0,-1"
       id="guide12246"
       inkscape:locked="false" />
  </sodipodi:namedview>
  <defs
     id="defs581" />
  <g
     inkscape:groupmode="layer"
     id="layer3"
     inkscape:label="Layer 2"
     transform="matrix(0.53044099,0,0,0.53044099,12.832254,-1.9630372)"
     style="opacity:0.4">
    <path
       id="rect12248"
       style="fill:#800080;stroke-width:0.807684"
       d="M 1.1535427 3.7153778 C 0.93583897 3.7153778 0.75995927 3.8912575 0.75995927 4.1089612 L 0.75995927 40.750214 C 0.75995927 40.967918 0.93583897 41.142823 1.1535427 41.142823 L 18.454652 41.142823 L 19.89844 43.626101 L 25.687234 53.57967 L 31.412704 43.590055 L 32.815576 41.142823 L 50.185854 41.142823 C 50.403558 41.142823 50.578463 40.967918 50.578463 40.750214 L 50.578463 4.1089612 C 50.578463 3.8912575 50.403558 3.7153778 50.185854 3.7153778 L 1.1535427 3.7153778 z " />
    <path
       id="rect180"
       style="fill:#ffffff;stroke-width:0.0489569"
       d="m 25.453714,6.1894559 -0.523962,0.041705 0.03733,0.4180825 -2.918886,0.3341574 v 2.6341288 l 2.918886,-0.4597887 -0.07512,4.4737961 -7.638687,4.246733 -0.01291,-1.873134 -4.824408,-4.669451 -4.9456086,4.804864 -0.080645,5.85625 4.0718776,-0.07517 0.01291,-2.67326 1.935938,0.04531 V 21.9968 l 3.870495,-0.06024 -0.02765,-4.040266 H 33.38503 l -0.03917,4.36464 -0.01751,0.09474 4.476947,0.01905 v -2.939967 h 3.542846 l -0.05162,2.826178 0.01751,0.170425 4.476485,-0.113788 0.01705,-5.785196 -1.79769,0.01905 0.03457,-1.934921 -4.044228,-1.706828 0.01705,-1.175987 h 3.059438 l 0.06913,-2.8833303 -4.079251,-0.056637 0.01751,4.0588013 -3.90644,1.707343 -0.01705,1.934407 H 33.39748 l -0.01244,1.380908 -7.893986,-4.243644 z M 16.025169,7.816993 c -0.123284,-0.0054 -0.240607,0.099685 -0.357142,0.2152196 l -0.05346,3.1232654 0.725344,0.750695 -0.01337,-3.8286503 C 16.220561,7.8924928 16.121047,7.8211936 16.025158,7.816993 Z m 0.87926,0.2455974 v 2.5074676 c 0,0 0.36995,0.467445 0.618432,0.465453 0.450406,-0.0037 0.878145,-0.048 1.317046,-0.07517 0.363553,-0.02249 0.899998,0.450521 0.899998,0.450521 V 8.9033909 c 0,0 -0.494657,-0.4264227 -0.698616,-0.4355892 -0.448406,-0.020126 -0.878537,0.016986 -1.33041,0.075172 -0.30261,0.038967 -0.80645,-0.4803833 -0.80645,-0.4803833 z m -4.48017,0.9504692 C 12.237794,9.0134462 12.051278,9.128004 11.864812,9.2936699 L 5.9113743,15.119541 c -0.095709,0.570758 -0.1286065,1.092255 0.7258043,0.915972 l 5.7654204,-5.57049 5.79215,5.585422 c 0.775463,0.02855 0.838473,-0.388815 0.725804,-0.915972 L 12.85928,9.2488747 C 12.714253,9.0818419 12.569286,9.0127587 12.424259,9.0130596 Z m 27.109136,5.6034434 a 0.86420688,0.90098919 0 0 1 0.864053,0.901041 0.86420688,0.90098919 0 0 1 -0.864053,0.901041 0.86420688,0.90098919 0 0 1 -0.864052,-0.901041 0.86420688,0.90098919 0 0 1 0.864052,-0.901041 z m -25.383796,1.561633 h 1.074651 c 0.134008,0 0.242857,0.120582 0.242857,0.270312 v 1.216147 c 0,0.149727 -0.108853,0.270312 -0.242857,0.270312 h -1.074651 c -0.134008,0 -0.241474,-0.120581 -0.241474,-0.270312 v -1.216147 c 0,-0.149726 0.107481,-0.270312 0.241474,-0.270312 z m -4.6359312,0.06745 h 1.0741902 c 0.134008,0 0.241935,0.120581 0.241935,0.270312 v 1.216148 c 0,0.149725 -0.107941,0.270312 -0.241935,0.270312 H 9.5136678 c -0.1340081,0 -0.2428564,-0.120582 -0.2428564,-0.270312 v -1.216148 c 0,-0.149726 0.1088521,-0.270312 0.2428564,-0.270312 z m 2.3511442,0.0078 h 1.075573 c 0.134008,0 0.241475,0.120066 0.241475,0.269797 v 1.216663 c 0,0.149726 -0.107464,0.269796 -0.241475,0.269796 h -1.075573 c -0.134007,0 -0.241934,-0.120068 -0.241934,-0.269796 v -1.216663 c 0,-0.149727 0.107925,-0.269797 0.241934,-0.269797 z m 6.052057,2.144477 c -0.01233,0 -0.02258,0.01094 -0.02258,0.02471 v 15.504078 c 0,0.01375 0.01026,0.02471 0.02258,0.02471 H 32.54125 c 0.01234,0 0.02213,-0.01096 0.02213,-0.02471 V 18.422499 c 0,-0.01378 -0.0098,-0.02471 -0.02213,-0.02471 z m 8.307349,2.007003 h 1.377415 c 0.01233,0 0.02213,0.01093 0.02213,0.02472 v 4.466072 c 0,0.01378 -0.0098,0.02472 -0.02213,0.02472 h -1.377415 c -0.01233,0 -0.02213,-0.01095 -0.02213,-0.02472 v -4.466072 c 0,-0.01378 0.0098,-0.02472 0.02213,-0.02472 z m -6.211963,0.04171 h 1.340087 c 0.01233,0 0.02213,0.01095 0.02213,0.02472 v 4.382147 c 0,0.01378 -0.0098,0.02522 -0.02213,0.02522 h -1.340087 c -0.01233,0 -0.02212,-0.01144 -0.02212,-0.02522 v -4.382147 c 0,-0.01378 0.0098,-0.02472 0.02212,-0.02472 z m 3.143308,0 h 1.265434 c 0.01233,0 0.02213,0.01095 0.02213,0.02472 v 4.382147 c 0,0.01378 -0.0098,0.02522 -0.02213,0.02522 h -1.265434 c -0.01233,0 -0.02213,-0.01144 -0.02213,-0.02522 v -4.382147 c 0,-0.01378 0.0098,-0.02472 0.02213,-0.02472 z m 6.211963,0 h 1.340089 c 0.01234,0 0.02212,0.01095 0.02212,0.02472 v 4.507777 c 0,0.01378 -0.0098,0.02472 -0.02212,0.02472 h -1.340089 c -0.01233,0 -0.02213,-0.01095 -0.02213,-0.02472 v -4.507777 c 0,-0.01378 0.0098,-0.02472 0.02213,-0.02472 z M 7.5510008,23.66604 c -0.012333,0 -0.02212,0.01094 -0.02212,0.02472 v 10.193602 c 0,0.01375 0.00979,0.02522 0.02212,0.02522 h 9.8723212 c 0.01233,0 0.02212,-0.01147 0.02212,-0.02522 V 23.69076 c 0,-0.01378 -0.0098,-0.02472 -0.02212,-0.02472 z m 25.7455462,0 c -0.01234,0 -0.02212,0.01094 -0.02212,0.02472 v 10.193602 c 0,0.01375 0.0098,0.02522 0.02212,0.02522 h 9.834995 c 0.01234,0 0.02213,-0.01147 0.02213,-0.02522 V 23.69076 c 0,-0.01378 -0.0098,-0.02472 -0.02213,-0.02472 z m -21.292103,1.714039 h 1.264973 c 0.01233,0 0.02213,0.01094 0.02213,0.02471 v 2.709817 c 0,0.01378 -0.0098,0.02472 -0.02213,0.02472 h -1.264973 c -0.01233,0 -0.02258,-0.01095 -0.02258,-0.02472 v -2.709812 c 0,-0.01378 0.01024,-0.02471 0.02258,-0.02471 z m 2.544232,0 h 1.302761 c 0.01233,0 0.02212,0.01094 0.02212,0.02471 v 2.668112 c 0,0.01378 -0.0098,0.02472 -0.02212,0.02472 h -1.302761 c -0.01233,0 -0.02212,-0.01094 -0.02212,-0.02472 v -2.668107 c 0,-0.01378 0.0098,-0.02471 0.02212,-0.02471 z m 20.282429,0 h 1.302761 c 0.01234,0 0.02212,0.01094 0.02212,0.02471 v 2.709817 c 0,0.01378 -0.0098,0.02472 -0.02212,0.02472 h -1.302761 c -0.01234,0 -0.02213,-0.01095 -0.02213,-0.02472 v -2.709812 c 0,-0.01378 0.0098,-0.02471 0.02213,-0.02471 z m -25.6708923,0.04171 h 1.2276463 c 0.01233,0 0.02258,0.01145 0.02258,0.02522 v 2.584183 c 0,0.01378 -0.01025,0.02472 -0.02258,0.02472 H 9.1602127 c -0.012333,0 -0.02212,-0.01095 -0.02212,-0.02472 v -2.584183 c 0,-0.01378 0.0098,-0.02522 0.02212,-0.02522 z m 30.9095863,0 h 1.265435 c 0.01234,0 0.02212,0.01145 0.02212,0.02522 v 2.62589 c 0,0.01378 -0.0098,0.02472 -0.02212,0.02472 h -1.265435 c -0.01234,0 -0.02212,-0.01094 -0.02212,-0.02472 v -2.62589 c 0,-0.01378 0.0098,-0.02522 0.02212,-0.02522 z m -2.58202,0.04171 h 1.265434 c 0.01234,0 0.02212,0.01145 0.02212,0.02522 v 2.584184 c 0,0.01378 -0.0098,0.02472 -0.02212,0.02472 h -1.265434 c -0.01234,0 -0.02212,-0.01093 -0.02212,-0.02472 v -2.584184 c 0,-0.01378 0.0098,-0.02522 0.02212,-0.02522 z m -14.369543,1.338175 h 4.258974 c 0.01233,0 0.02213,0.01094 0.02213,0.02472 v 5.887657 c 0,0.01375 -0.0098,0.02471 -0.02213,0.02471 h -4.258974 c -0.01233,0 -0.02213,-0.01096 -0.02213,-0.02471 v -5.887657 c 0,-0.01378 0.0098,-0.02472 0.02213,-0.02472 z m -3.105981,0.04171 h 1.30276 c 0.01233,0 0.02213,0.01144 0.02213,0.02523 v 4.758009 c 0,0.01375 -0.0098,0.02522 -0.02213,0.02522 h -1.30276 c -0.01233,0 -0.02212,-0.01138 -0.02212,-0.02522 v -4.758009 c 0,-0.01378 0.0098,-0.02523 0.02212,-0.02523 z m 9.392598,0.04171 h 1.265435 c 0.01234,0 0.02213,0.01145 0.02213,0.02522 v 4.674598 c 0,0.01375 -0.0098,0.02523 -0.02213,0.02523 h -1.265435 c -0.01233,0 -0.02213,-0.01138 -0.02213,-0.02523 v -4.674598 c 0,-0.01378 0.0098,-0.02522 0.02213,-0.02522 z m -17.400409,2.509003 h 1.264973 c 0.01233,0 0.02213,0.01094 0.02213,0.02472 v 2.75152 c 0,0.01375 -0.0098,0.02472 -0.02213,0.02472 h -1.264973 c -0.01233,0 -0.02258,-0.01087 -0.02258,-0.02472 v -2.75152 c 0,-0.01378 0.01024,-0.02472 0.02258,-0.02472 z m -2.9566734,0.04171 h 1.3400884 c 0.01233,0 0.02258,0.01095 0.02258,0.02472 v 2.66811 c 0,0.01375 -0.01025,0.02471 -0.02258,0.02471 H 9.0477706 c -0.012333,0 -0.02212,-0.01096 -0.02212,-0.02471 v -2.66811 c 0,-0.01378 0.0098,-0.02472 0.02212,-0.02472 z m 5.5386934,0.04171 h 1.377415 c 0.01233,0 0.02213,0.01094 0.02213,0.02471 v 2.626405 c 0,0.01375 -0.0098,0.02471 -0.02213,0.02471 h -1.377415 c -0.01233,0 -0.02258,-0.01096 -0.02258,-0.02471 v -2.626405 c 0,-0.01378 0.01026,-0.02471 0.02258,-0.02471 z m 20.244641,0 h 1.340089 c 0.01234,0 0.02212,0.01094 0.02212,0.02471 v 2.626405 c 0,0.01375 -0.0098,0.02471 -0.02212,0.02471 h -1.340089 c -0.01234,0 -0.02213,-0.01096 -0.02213,-0.02471 v -2.626405 c 0,-0.01378 0.0098,-0.02471 0.02213,-0.02471 z m 5.16404,0 h 1.414742 c 0.01234,0 0.02258,0.01094 0.02258,0.02471 v 2.668109 c 0,0.01375 -0.01024,0.02472 -0.02258,0.02472 h -1.414742 c -0.01234,0 -0.02213,-0.01087 -0.02213,-0.02472 v -2.668109 c 0,-0.01378 0.0098,-0.02471 0.02213,-0.02471 z m -2.582021,0.04171 h 1.340089 c 0.01234,0 0.02212,0.01145 0.02212,0.02522 v 2.584186 c 0,0.01375 -0.0098,0.02471 -0.02212,0.02471 h -1.340089 c -0.01234,0 -0.02212,-0.01096 -0.02212,-0.02471 v -2.584186 c 0,-0.01378 0.0098,-0.02522 0.02212,-0.02522 z M 7.515517,35.038205 c -0.013278,0 -0.023963,0.01193 -0.023963,0.02678 v 1.11729 c 0,0.01485 0.010685,0.02678 0.023963,0.02678 h 35.651508 c 0.01328,0 0.02397,-0.01193 0.02397,-0.02678 v -1.11729 c 0,-0.01485 -0.0107,-0.02678 -0.02397,-0.02678 z m 0.037327,2.299455 c -0.013278,0 -0.023964,0.01193 -0.023964,0.02678 v 1.11729 c 0,0.01485 0.010685,0.02678 0.023964,0.02678 h 35.651508 c 0.01328,0 0.02397,-0.01193 0.02397,-0.02678 v -1.11729 c 0,-0.01485 -0.01069,-0.02678 -0.02397,-0.02678 z" />
  </g>
</svg>
