<?xml version="1.0" encoding="UTF-8" standalone="no"?>
<!-- Created with Inkscape (http://www.inkscape.org/) -->

<svg
   version="1.1"
   id="svg9"
   width="512"
   height="512"
   viewBox="0 0 512 512"
   sodipodi:docname="Elementary.svg"
   inkscape:version="1.2 (dc2aedaf03, 2022-05-15)"
   xmlns:inkscape="http://www.inkscape.org/namespaces/inkscape"
   xmlns:sodipodi="http://sodipodi.sourceforge.net/DTD/sodipodi-0.dtd"
   xmlns="http://www.w3.org/2000/svg"
   xmlns:svg="http://www.w3.org/2000/svg">
  <defs
     id="defs13" />
  <sodipodi:namedview
     id="namedview11"
     pagecolor="#505050"
     bordercolor="#ffffff"
     borderopacity="1"
     inkscape:showpageshadow="0"
     inkscape:pageopacity="0"
     inkscape:pagecheckerboard="1"
     inkscape:deskcolor="#505050"
     showgrid="false"
     showguides="true"
     inkscape:zoom="1.5898438"
     inkscape:cx="-39.941031"
     inkscape:cy="113.84766"
     inkscape:window-width="1280"
     inkscape:window-height="961"
     inkscape:window-x="3780"
     inkscape:window-y="-8"
     inkscape:window-maximized="1"
     inkscape:current-layer="layer2">
    <sodipodi:guide
       position="-8.8058965,411.99018"
       orientation="0,-1"
       id="guide69"
       inkscape:locked="false" />
    <sodipodi:guide
       position="99.380832,514.51597"
       orientation="1,0"
       id="guide71"
       inkscape:locked="false" />
    <sodipodi:guide
       position="0,494.38821"
       orientation="1,0"
       id="guide236"
       inkscape:locked="false" />
    <sodipodi:guide
       position="-14.46683,512"
       orientation="0,-1"
       id="guide238"
       inkscape:locked="false" />
  </sodipodi:namedview>
  <g
     inkscape:groupmode="layer"
     id="layer1"
     inkscape:label="Image 1"
     style="display:inline"
     transform="matrix(6.971681,0,0,6.971681,-57.162516,-67.368026)" />
  <g
     inkscape:groupmode="layer"
     id="layer2"
     inkscape:label="Image 2"
     style="display:inline"
     transform="matrix(7.4459001,0,0,7.3466746,-61.102883,-71.12477)">
    <path
       id="rect234"
       style="display:inline;fill:#808080;stroke-width:0.331225"
       d="m 8.5115178,10.018155 c -0.1119428,0 -0.2023474,0.09041 -0.2023474,0.202348 v 11.535404 c 0,0.111943 0.090405,0.201548 0.2023474,0.201548 h 4.1677182 l 0.909364,1.50281 0.99974,1.65397 0.932558,-1.69316 0.805391,-1.46362 h 5.04429 c 0.111943,0 0.202347,-0.0896 0.202347,-0.201548 V 10.220503 c 0,-0.111943 -0.0904,-0.202348 -0.202347,-0.202348 z" />
    <path
       id="path596"
       style="display:inline;fill:#ffffff;stroke-width:0.409494"
       d="m 14.611534,13.082159 -4.189312,3.642255 -0.06798,4.439647 3.448705,-0.05679 0.0112,-2.026673 1.639575,0.03439 v 2.04907 l 3.278348,-0.04559 -0.03439,-4.496433 z m 1.468419,3.671047 h 0.910163 c 0.113504,0 0.205547,0.09124 0.205547,0.204747 v 0.922161 c 0,0.113503 -0.09204,0.204746 -0.205547,0.204746 h -0.910163 c -0.113504,0 -0.204747,-0.09124 -0.204747,-0.204746 v -0.922161 c 0,-0.113504 0.09124,-0.204747 0.204747,-0.204747 z m -3.926981,0.05119 h 0.910164 c 0.113503,0 0.204747,0.09124 0.204747,0.204747 v 0.92216 c 0,0.113503 -0.09124,0.204747 -0.204747,0.204747 h -0.910164 c -0.113502,0 -0.205546,-0.09124 -0.205546,-0.204747 v -0.92216 c 0,-0.113504 0.09204,-0.204747 0.205546,-0.204747 z m 1.991483,0.0056 h 0.910964 c 0.113504,0 0.204747,0.09124 0.204747,0.204747 v 0.92216 c 0,0.113503 -0.09124,0.204747 -0.204747,0.204747 h -0.910964 c -0.113503,0 -0.204746,-0.09124 -0.204746,-0.204747 v -0.92216 c 0,-0.113504 0.09124,-0.204748 0.204746,-0.204747 z m 0.455508,-4.388109 4.906085,4.234486 c 0.656835,0.02163 0.710117,-0.294727 0.614684,-0.694365 l -5.133745,-4.462146 c -0.280782,-0.289435 -0.561563,-0.189139 -0.842344,0.03415 L 9.1019614,15.95062 c -0.081072,0.43269 -0.1090285,0.828003 0.6146836,0.694364 z m 2.720544,0.523619 0.614683,0.569151 -0.01138,-2.902672 c -0.205251,-0.320633 -0.382289,-0.189863 -0.557768,-0.03415 z m 1.09277,-2.344904 c 0,0 0.426663,0.393797 0.682982,0.364257 0.382747,-0.04411 0.74711,-0.07217 1.12692,-0.05692 0.172758,0.0069 0.591917,0.330107 0.591917,0.330107 v 1.900966 c 0,0 -0.454725,-0.35855 -0.762663,-0.341491 -0.371759,0.02059 -0.734031,0.05414 -1.115536,0.05692 -0.21047,0.0015 -0.52362,-0.352873 -0.52362,-0.352873 z" />
  </g>
</svg>
