<?xml version="1.0" encoding="UTF-8" standalone="no"?>
<!-- Created with Inkscape (http://www.inkscape.org/) -->

<svg
   width="210mm"
   height="297mm"
   viewBox="0 0 210 297"
   version="1.1"
   id="svg5"
   inkscape:version="1.2 (dc2aedaf03, 2022-05-15)"
   sodipodi:docname="high.svg"
   xmlns:inkscape="http://www.inkscape.org/namespaces/inkscape"
   xmlns:sodipodi="http://sodipodi.sourceforge.net/DTD/sodipodi-0.dtd"
   xmlns="http://www.w3.org/2000/svg"
   xmlns:svg="http://www.w3.org/2000/svg">
  <sodipodi:namedview
     id="namedview7"
     pagecolor="#505050"
     bordercolor="#ffffff"
     borderopacity="1"
     inkscape:showpageshadow="0"
     inkscape:pageopacity="0"
     inkscape:pagecheckerboard="1"
     inkscape:deskcolor="#505050"
     inkscape:document-units="mm"
     showgrid="false"
     showguides="true"
     inkscape:zoom="2.1089995"
     inkscape:cx="320.29405"
     inkscape:cy="171.64537"
     inkscape:window-width="2560"
     inkscape:window-height="1017"
     inkscape:window-x="1220"
     inkscape:window-y="-8"
     inkscape:window-maximized="1"
     inkscape:current-layer="layer1">
    <sodipodi:guide
       position="49.677418,284.58065"
       orientation="1,0"
       id="guide9"
       inkscape:locked="false" />
    <sodipodi:guide
       position="21.999999,246.96775"
       orientation="0,-1"
       id="guide61"
       inkscape:locked="false" />
    <sodipodi:guide
       position="20.198163,271.90912"
       orientation="0,-1"
       id="guide401"
       inkscape:locked="false" />
    <sodipodi:guide
       position="24.965431,292.98546"
       orientation="1,0"
       id="guide403"
       inkscape:locked="false" />
  </sodipodi:namedview>
  <defs
     id="defs2" />
  <g
     inkscape:groupmode="layer"
     id="layer2"
     inkscape:label="Layer 2"
     transform="matrix(1.8267117,0,0,1.8267117,-1.2444776,-4.2524991)">
    <path
       id="rect406"
       style="fill:#808080;stroke-width:0.293584"
       d="m 1.6537004,5.1438721 c -0.082023,0 -0.1483659,0.065744 -0.1483659,0.1477678 V 46.38782 c 0,0.08202 0.066342,0.148367 0.1483659,0.148367 H 22.901145 l 2.473763,4.284067 3.144402,5.446469 3.144402,-5.446469 2.473763,-4.284067 h 20.667144 c 0.08202,0 0.147768,-0.06635 0.147768,-0.148367 V 5.2916399 c 0,-0.082023 -0.06575,-0.1477678 -0.147768,-0.1477678 z" />
  </g>
  <g
     inkscape:label="Layer 1"
     inkscape:groupmode="layer"
     id="layer1"
     transform="matrix(1.8267117,0,0,1.8267117,-1.2444776,-4.2524991)">
    <path
       id="rect180"
       style="fill:#ffffff;stroke-width:0.0601275"
       d="m 28.639503,6.5703292 -0.680125,0.048623 0.04862,0.4857539 -3.789353,0.3886253 v 3.0606106 l 3.789351,-0.534375 -0.09725,5.197995 -9.958856,4.95523 H 38.987093 L 28.68812,15.217562 Z M 18.855161,20.755785 c -0.01601,0 -0.02887,0.01287 -0.02887,0.02887 v 18.014077 c 0,0.01598 0.01287,0.02883 0.02887,0.02883 H 37.84085 c 0.01602,0 0.0289,-0.01285 0.0289,-0.02883 v -18.01407 c 0,-0.01601 -0.01287,-0.02887 -0.0289,-0.02887 z m 10.78484,2.331754 h 1.788243 c 0.01601,0 0.02887,0.01298 0.02887,0.029 v 5.188857 c 0,0.01601 -0.01287,0.02887 -0.02887,0.02887 h -1.788243 c -0.01601,0 -0.02887,-0.01287 -0.02887,-0.02887 v -5.188857 c 0,-0.01601 0.01287,-0.029 0.02887,-0.029 z m -8.064347,0.04863 h 1.739733 c 0.01601,0 0.02889,0.01287 0.02889,0.02887 v 5.091728 c 0,0.01601 -0.01287,0.02889 -0.02889,0.02889 h -1.739733 c -0.01601,0 -0.02889,-0.01287 -0.02889,-0.02889 v -5.091729 c 0,-0.01601 0.01287,-0.02887 0.02889,-0.02887 z m 4.080737,0 h 1.642494 c 0.01601,0 0.02899,0.01287 0.02899,0.02887 v 5.091728 c 0,0.01601 -0.01298,0.02889 -0.02899,0.02889 h -1.642494 c -0.01601,0 -0.02887,-0.01287 -0.02887,-0.02889 v -5.091729 c 0,-0.01601 0.01287,-0.02887 0.02887,-0.02887 z m 8.064349,0 h 1.739622 c 0.01602,0 0.02899,0.01287 0.02899,0.02887 v 5.237478 c 0,0.01601 -0.01297,0.02887 -0.02899,0.02887 H 33.72074 c -0.01601,0 -0.02887,-0.01287 -0.02887,-0.02887 v -5.237479 c 0,-0.01601 0.01287,-0.02887 0.02887,-0.02887 z M 5.3984495,26.876896 c -0.016011,0 -0.028884,0.01287 -0.028884,0.02887 V 38.75011 c 0,0.01597 0.012873,0.02883 0.028884,0.02883 H 18.214407 c 0.01601,0 0.02889,-0.01285 0.02889,-0.02883 V 26.90577 c 0,-0.01601 -0.01287,-0.02888 -0.02889,-0.02888 z m 33.4231565,0 c -0.01602,0 -0.0289,0.01287 -0.0289,0.02887 V 38.75011 c 0,0.01597 0.01287,0.02883 0.0289,0.02883 h 12.767453 c 0.01603,0 0.02892,-0.01285 0.02892,-0.02883 V 26.90577 c 0,-0.01601 -0.01289,-0.02888 -0.02892,-0.02888 z m -27.642054,1.991746 h 1.642492 c 0.01601,0 0.02887,0.01287 0.02887,0.02887 v 3.148489 c 0,0.01601 -0.01287,0.02887 -0.02887,0.02887 h -1.642492 c -0.01601,0 -0.02888,-0.01287 -0.02888,-0.02887 v -3.148489 c 0,-0.01601 0.01287,-0.02887 0.02888,-0.02887 z m 3.303373,0 h 1.691114 c 0.01601,0 0.02887,0.01287 0.02887,0.02887 v 3.099981 c 0,0.01601 -0.01287,0.02887 -0.02887,0.02887 h -1.691114 c -0.01601,0 -0.02887,-0.01287 -0.02887,-0.02887 v -3.099981 c 0,-0.01601 0.01287,-0.02887 0.02887,-0.02887 z m 26.33054,0 h 1.691115 c 0.01602,0 0.0289,0.01287 0.0289,0.02887 v 3.148489 c 0,0.01601 -0.01287,0.02887 -0.0289,0.02887 h -1.691115 c -0.01602,0 -0.0289,-0.01287 -0.0289,-0.02887 v -3.148489 c 0,-0.01601 0.01287,-0.02887 0.0289,-0.02887 z m -33.3260262,0.04862 h 1.5938731 c 0.01601,0 0.02899,0.01287 0.02899,0.02887 v 3.002739 c 0,0.01601 -0.012975,0.02887 -0.02899,0.02887 H 7.4874388 c -0.01601,0 -0.028872,-0.01287 -0.028872,-0.02887 v -3.002739 c 0,-0.01601 0.012872,-0.02887 0.028872,-0.02887 z m 40.1272602,0 h 1.642494 c 0.01602,0 0.0289,0.01287 0.0289,0.02887 v 3.051359 c 0,0.01601 -0.01287,0.02887 -0.0289,0.02887 h -1.642494 c -0.01602,0 -0.0289,-0.01287 -0.0289,-0.02887 v -3.051359 c 0,-0.01601 0.01287,-0.02887 0.0289,-0.02887 z m -3.352111,0.04851 h 1.642611 c 0.01602,0 0.0289,0.01287 0.0289,0.02887 v 3.002852 c 0,0.01601 -0.01287,0.02888 -0.0289,0.02888 h -1.642611 c -0.01602,0 -0.0289,-0.01287 -0.0289,-0.02888 v -3.002852 c 0,-0.01601 0.01287,-0.02887 0.0289,-0.02887 z M 25.607884,30.52039 h 5.528862 c 0.01601,0 0.02888,0.01287 0.02888,0.02887 v 6.840608 c 0,0.01598 -0.01287,0.02883 -0.02888,0.02883 h -5.528862 c -0.01601,0 -0.02899,-0.01285 -0.02899,-0.02883 v -6.840612 c 0,-0.01601 0.01298,-0.02889 0.02899,-0.02889 z m -4.03223,0.04851 h 1.691114 c 0.01601,0 0.02887,0.01298 0.02887,0.02899 v 5.528847 c 0,0.01598 -0.01287,0.02894 -0.02887,0.02894 h -1.691114 c -0.01601,0 -0.02889,-0.01285 -0.02889,-0.02894 v -5.528859 c 0,-0.01601 0.01287,-0.029 0.02889,-0.029 z m 12.193706,0.04863 h 1.642492 c 0.01602,0 0.0289,0.01287 0.0289,0.02887 v 5.431833 c 0,0.01598 -0.01287,0.02894 -0.0289,0.02894 H 33.76936 c -0.01601,0 -0.029,-0.01285 -0.029,-0.02894 v -5.431839 c 0,-0.01601 0.01298,-0.02887 0.029,-0.02887 z m -22.589808,2.914863 h 1.642492 c 0.01601,0 0.02887,0.01287 0.02887,0.02889 v 3.197111 c 0,0.01598 -0.01287,0.02894 -0.02887,0.02894 h -1.642492 c -0.01601,0 -0.02888,-0.01285 -0.02888,-0.02894 v -3.197111 c 0,-0.01601 0.01287,-0.02889 0.02888,-0.02889 z m -3.8378626,0.04851 h 1.7396225 c 0.01601,0 0.02899,0.01287 0.02899,0.02887 v 3.099981 c 0,0.01598 -0.012975,0.02883 -0.02899,0.02883 H 7.3416894 c -0.01601,0 -0.028872,-0.01285 -0.028872,-0.02883 v -3.099981 c 0,-0.01601 0.012872,-0.02887 0.028872,-0.02887 z m 7.1898576,0.04863 h 1.788241 c 0.01601,0 0.02887,0.01287 0.02887,0.02887 v 3.051358 c 0,0.01598 -0.01287,0.02883 -0.02887,0.02883 h -1.788241 c -0.01601,0 -0.02887,-0.01285 -0.02887,-0.02883 v -3.051358 c 0,-0.01601 0.01287,-0.02887 0.02887,-0.02887 z m 26.281918,0 h 1.739625 c 0.01602,0 0.0289,0.01287 0.0289,0.02887 v 3.051358 c 0,0.01598 -0.01287,0.02883 -0.0289,0.02883 h -1.739625 c -0.01602,0 -0.0289,-0.01285 -0.0289,-0.02883 v -3.051358 c 0,-0.01601 0.01287,-0.02887 0.0289,-0.02887 z m 6.704104,0 h 1.836753 c 0.01602,0 0.0289,0.01287 0.0289,0.02887 v 3.09997 c 0,0.01597 -0.01287,0.02894 -0.0289,0.02894 h -1.836753 c -0.01602,0 -0.029,-0.01285 -0.029,-0.02894 v -3.09997 c 0,-0.01601 0.01298,-0.02887 0.029,-0.02887 z m -3.352106,0.04862 h 1.739736 c 0.01602,0 0.0289,0.01287 0.0289,0.02887 v 3.002748 c 0,0.01597 -0.01287,0.02883 -0.0289,0.02883 h -1.739736 c -0.01602,0 -0.0289,-0.01285 -0.0289,-0.02883 v -3.002756 c 0,-0.01601 0.01287,-0.02887 0.0289,-0.02887 z M 5.3520854,40.090619 c -0.017238,0 -0.03113,0.01389 -0.03113,0.03114 v 1.298088 c 0,0.01725 0.013892,0.03103 0.03113,0.03103 H 51.635426 c 0.01722,0 0.03113,-0.01378 0.03113,-0.03103 v -1.298085 c 0,-0.01725 -0.01387,-0.03114 -0.03113,-0.03114 z m 0.048623,2.671981 c -0.017238,0 -0.03113,0.01389 -0.03113,0.03114 v 1.297984 c 0,0.01725 0.013892,0.03114 0.03113,0.03114 H 51.683933 c 0.01722,0 0.03113,-0.01389 0.03113,-0.03114 V 42.79374 c 0,-0.01725 -0.01387,-0.03114 -0.03113,-0.03114 z" />
  </g>
</svg>
