<?xml version="1.0" encoding="UTF-8" standalone="no"?>
<!-- Created with Inkscape (http://www.inkscape.org/) -->

<svg
   width="210mm"
   height="297mm"
   viewBox="0 0 210 297"
   version="1.1"
   id="svg584"
   inkscape:version="1.2 (dc2aedaf03, 2022-05-15)"
   sodipodi:docname="spanred.svg"
   xmlns:inkscape="http://www.inkscape.org/namespaces/inkscape"
   xmlns:sodipodi="http://sodipodi.sourceforge.net/DTD/sodipodi-0.dtd"
   xmlns="http://www.w3.org/2000/svg"
   xmlns:svg="http://www.w3.org/2000/svg">
  <sodipodi:namedview
     id="namedview586"
     pagecolor="#505050"
     bordercolor="#ffffff"
     borderopacity="1"
     inkscape:showpageshadow="0"
     inkscape:pageopacity="0"
     inkscape:pagecheckerboard="1"
     inkscape:deskcolor="#505050"
     inkscape:document-units="mm"
     showgrid="false"
     showguides="true"
     inkscape:zoom="2.1089995"
     inkscape:cx="284.25801"
     inkscape:cy="257.94221"
     inkscape:window-width="1280"
     inkscape:window-height="961"
     inkscape:window-x="3780"
     inkscape:window-y="-8"
     inkscape:window-maximized="1"
     inkscape:current-layer="layer3">
    <sodipodi:guide
       position="3.6381785,246.88096"
       orientation="0,-1"
       id="guide588"
       inkscape:locked="false" />
    <sodipodi:guide
       position="49.993589,268.3964"
       orientation="1,0"
       id="guide590"
       inkscape:locked="false" />
    <sodipodi:guide
       position="17.438165,271.90912"
       orientation="0,-1"
       id="guide873"
       inkscape:locked="false" />
    <sodipodi:guide
       position="25.090885,280.81639"
       orientation="1,0"
       id="guide875"
       inkscape:locked="false" />
  </sodipodi:namedview>
  <defs
     id="defs581" />
  <g
     inkscape:groupmode="layer"
     id="layer3"
     inkscape:label="Layer 2"
     transform="matrix(2.0554843,0,0,2.0554843,-1.553969,-4.0318718)">
    <path
       id="rect815"
       style="fill:#ff0000;stroke-width:0.268064"
       d="m 1.010791,3.7010661 c -0.0733373,0 -0.13280842,0.058954 -0.13280842,0.1322916 V 41.20472 c 0,0.07334 0.0594711,0.132292 0.13280842,0.132292 h 19.226217 l 2.2934,4.108793 2.502689,4.484997 2.503207,-4.484997 2.2934,-4.108793 h 19.529557 c 0.07334,0 0.132292,-0.05896 0.132292,-0.132292 V 3.8333577 c 0,-0.073337 -0.05896,-0.1322916 -0.132292,-0.1322916 z" />
    <path
       id="rect180"
       style="fill:#ffffff;stroke-width:0.0519378"
       d="m 24.756947,6.4259656 -0.587561,0.041858 0.04186,0.4196123 -3.273186,0.33538 v 2.643767 l 3.273186,-0.461471 -0.08423,4.4901651 -8.565885,4.262272 -0.01447,-1.879988 -5.410005,-4.686536 -5.5459152,4.822445 -0.090434,5.877677 4.5661295,-0.07545 0.014469,-2.683041 2.1709267,0.04548 v 2.713012 l 4.340303,-0.06046 -0.03101,-4.05505 h 18.089852 l -0.04393,4.380611 -0.01964,0.09509 5.020365,0.01912 v -2.950724 h 3.972884 l -0.05788,2.836519 0.01964,0.171049 5.019849,-0.114205 0.01912,-5.806364 -2.015897,0.01912 0.03876,-1.942001 -4.535124,-1.713073 0.01912,-1.18029 h 3.430798 l 0.07752,-2.8938801 -4.574398,-0.056844 0.01964,4.0736531 -4.380611,1.71359 -0.01912,1.941484 h -1.97714 l -0.01395,1.385962 -8.852173,-4.259172 z M 14.183949,8.0594578 c -0.138249,-0.00542 -0.269813,0.10005 -0.400493,0.216007 l -0.05994,3.1346932 0.813387,0.753442 -0.01499,-3.8426592 C 14.40307,8.1352338 14.291476,8.0636738 14.183949,8.0594578 Z m 0.985986,0.246496 v 2.5166432 c 0,0 0.414855,0.469155 0.693498,0.467155 0.505077,-0.0037 0.984736,-0.04818 1.476912,-0.07545 0.407681,-0.02258 1.009241,0.452169 1.009241,0.452169 V 9.1498308 c 0,0 -0.554699,-0.427983 -0.783415,-0.437183 -0.502835,-0.0202 -0.985175,0.017048 -1.491898,0.075447 -0.339342,0.03911 -0.904338,-0.482141 -0.904338,-0.482141 z m -5.023983,0.953947 C 9.936855,9.2602888 9.727699,9.3752658 9.5186,9.5415378 L 2.8425221,15.388726 c -0.1073263,0.572846 -0.1442169,1.096252 0.8139038,0.919324 l 6.4652381,-5.590873 6.495211,5.605859 c 0.869591,0.02865 0.940249,-0.390237 0.813904,-0.919324 L 10.633778,9.4965788 c -0.162631,-0.167644 -0.325194,-0.23698 -0.487826,-0.236678 z m 30.399695,5.6239462 a 0.96910594,0.90428589 0 0 1 0.968933,0.904338 0.96910594,0.90428589 0 0 1 -0.968933,0.904338 0.96910594,0.90428589 0 0 1 -0.968933,-0.904338 0.96910594,0.90428589 0 0 1 0.968933,-0.904338 z m -28.464929,1.567347 h 1.205094 c 0.150275,0 0.272335,0.121023 0.272335,0.271301 v 1.220597 c 0,0.150275 -0.122065,0.271301 -0.272335,0.271301 h -1.205094 c -0.150274,0 -0.270785,-0.121022 -0.270785,-0.271301 v -1.220597 c 0,-0.150274 0.120528,-0.271301 0.270785,-0.271301 z m -5.1986492,0.0677 h 1.2045777 c 0.1502743,0 0.2713012,0.121022 0.2713012,0.271301 v 1.220597 c 0,0.150274 -0.1210429,0.271302 -0.2713012,0.271302 H 6.8820688 c -0.1502743,0 -0.2723348,-0.121023 -0.2723348,-0.271302 v -1.220597 c 0,-0.150274 0.1220648,-0.271301 0.2723348,-0.271301 z m 2.6365312,0.0078 h 1.206128 c 0.150274,0 0.270785,0.120506 0.270785,0.270785 v 1.221114 c 0,0.150275 -0.120508,0.270784 -0.270785,0.270784 H 9.5186 c -0.150273,0 -0.271301,-0.120507 -0.271301,-0.270784 v -1.221114 c 0,-0.150275 0.121026,-0.270785 0.271301,-0.270785 z m 6.786666,2.152324 c -0.01383,0 -0.02532,0.01098 -0.02532,0.0248 v 15.560808 c 0,0.0138 0.0115,0.0248 0.02532,0.0248 h 16.399516 c 0.01384,0 0.02481,-0.011 0.02481,-0.0248 V 18.703769 c 0,-0.01383 -0.01096,-0.0248 -0.02481,-0.0248 z m 9.315711,2.014347 h 1.544608 c 0.01383,0 0.02481,0.01097 0.02481,0.02481 v 4.482413 c 0,0.01383 -0.01099,0.02481 -0.02481,0.02481 h -1.544608 c -0.01383,0 -0.02481,-0.01099 -0.02481,-0.02481 v -4.482413 c 0,-0.01383 0.01099,-0.02481 0.02481,-0.02481 z m -6.965983,0.04186 h 1.50275 c 0.01383,0 0.02481,0.01099 0.02481,0.02481 v 4.398181 c 0,0.01383 -0.01098,0.02532 -0.02481,0.02532 h -1.50275 c -0.01383,0 -0.0248,-0.01149 -0.0248,-0.02532 v -4.398181 c 0,-0.01383 0.01097,-0.02481 0.0248,-0.02481 z m 3.524849,0 h 1.419035 c 0.01383,0 0.02481,0.01099 0.02481,0.02481 v 4.398181 c 0,0.01383 -0.01097,0.02532 -0.02481,0.02532 h -1.419035 c -0.01383,0 -0.02481,-0.01149 -0.02481,-0.02532 v -4.398181 c 0,-0.01383 0.01098,-0.02481 0.02481,-0.02481 z m 6.965983,0 h 1.502751 c 0.01384,0 0.0248,0.01099 0.0248,0.02481 v 4.524271 c 0,0.01383 -0.01097,0.02481 -0.0248,0.02481 h -1.502751 c -0.01383,0 -0.02481,-0.01099 -0.02481,-0.02481 v -4.524271 c 0,-0.01383 0.01099,-0.02481 0.02481,-0.02481 z M 4.6811696,23.966497 c -0.01383,0 -0.024805,0.01098 -0.024805,0.02481 v 10.2309 c 0,0.0138 0.010975,0.02532 0.024805,0.02532 H 15.751812 c 0.01383,0 0.0248,-0.01152 0.0248,-0.02532 v -10.2309 c 0,-0.01383 -0.01097,-0.02481 -0.0248,-0.02481 z m 28.8705894,0 c -0.01384,0 -0.0248,0.01098 -0.0248,0.02481 v 10.2309 c 0,0.0138 0.01096,0.02532 0.0248,0.02532 h 11.028784 c 0.01384,0 0.02481,-0.01152 0.02481,-0.02532 v -10.2309 c 0,-0.01383 -0.01096,-0.02481 -0.02481,-0.02481 z M 9.67518,25.686806 h 1.418518 c 0.01383,0 0.02481,0.01098 0.02481,0.0248 v 2.719731 c 0,0.01383 -0.01098,0.02481 -0.02481,0.02481 H 9.67518 c -0.01383,0 -0.025321,-0.01099 -0.025321,-0.02481 V 25.71161 c 0,-0.01383 0.011491,-0.0248 0.025321,-0.0248 z m 2.853056,0 h 1.460893 c 0.01383,0 0.0248,0.01098 0.0248,0.0248 v 2.677873 c 0,0.01383 -0.01098,0.02481 -0.0248,0.02481 h -1.460893 c -0.01383,0 -0.0248,-0.01098 -0.0248,-0.02481 V 25.71161 c 0,-0.01383 0.01098,-0.0248 0.0248,-0.0248 z m 22.744348,0 h 1.460893 c 0.01384,0 0.0248,0.01098 0.0248,0.0248 v 2.719731 c 0,0.01383 -0.01096,0.02481 -0.0248,0.02481 h -1.460893 c -0.01384,0 -0.02481,-0.01099 -0.02481,-0.02481 V 25.71161 c 0,-0.01383 0.01096,-0.0248 0.02481,-0.0248 z m -28.7868734,0.04186 h 1.3766602 c 0.01383,0 0.025321,0.0115 0.025321,0.02532 v 2.59364 c 0,0.01383 -0.011491,0.02481 -0.025321,0.02481 H 6.4857106 c -0.01383,0 -0.024805,-0.01099 -0.024805,-0.02481 v -2.59364 c 0,-0.01383 0.010985,-0.02532 0.024805,-0.02532 z m 34.6614504,0 h 1.419035 c 0.01384,0 0.0248,0.0115 0.0248,0.02532 v 2.635498 c 0,0.01383 -0.01096,0.02481 -0.0248,0.02481 h -1.419035 c -0.01384,0 -0.0248,-0.01098 -0.0248,-0.02481 v -2.635498 c 0,-0.01383 0.01096,-0.02532 0.0248,-0.02532 z m -2.895431,0.04186 h 1.419035 c 0.01384,0 0.0248,0.0115 0.0248,0.02532 v 2.59364 c 0,0.01383 -0.01096,0.02481 -0.0248,0.02481 H 38.25173 c -0.01384,0 -0.0248,-0.01097 -0.0248,-0.02481 v -2.59364 c 0,-0.01383 0.01096,-0.02532 0.0248,-0.02532 z m -16.113745,1.343071 h 4.775936 c 0.01383,0 0.02481,0.01098 0.02481,0.02481 v 5.9092 c 0,0.0138 -0.01097,0.0248 -0.02481,0.0248 h -4.775936 c -0.01383,0 -0.02481,-0.011 -0.02481,-0.0248 v -5.9092 c 0,-0.01383 0.01097,-0.02481 0.02481,-0.02481 z m -3.482991,0.04186 h 1.460892 c 0.01383,0 0.02481,0.01149 0.02481,0.02532 v 4.775419 c 0,0.0138 -0.01099,0.02532 -0.02481,0.02532 h -1.460892 c -0.01383,0 -0.0248,-0.01142 -0.0248,-0.02532 v -4.775419 c 0,-0.01383 0.01097,-0.02532 0.0248,-0.02532 z m 10.53269,0.04186 h 1.419035 c 0.01384,0 0.02481,0.0115 0.02481,0.02532 v 4.691703 c 0,0.0138 -0.01096,0.02532 -0.02481,0.02532 h -1.419035 c -0.01383,0 -0.02481,-0.01142 -0.02481,-0.02532 v -4.691703 c 0,-0.01383 0.01096,-0.02532 0.02481,-0.02532 z M 9.67518,29.7155 h 1.418518 c 0.01383,0 0.02481,0.01098 0.02481,0.02481 v 2.761588 c 0,0.0138 -0.01098,0.02481 -0.02481,0.02481 H 9.67518 c -0.01383,0 -0.025321,-0.01091 -0.025321,-0.02481 V 29.74031 c 0,-0.01383 0.011491,-0.02481 0.025321,-0.02481 z m -3.3155599,0.04186 h 1.5027507 c 0.01383,0 0.025321,0.01099 0.025321,0.02481 v 2.677873 c 0,0.0138 -0.011491,0.0248 -0.025321,0.0248 H 6.3596201 c -0.01383,0 -0.024805,-0.011 -0.024805,-0.0248 V 29.78217 c 0,-0.01383 0.010985,-0.02481 0.024805,-0.02481 z m 6.2109909,0.04186 h 1.544608 c 0.01383,0 0.02481,0.01098 0.02481,0.0248 v 2.636015 c 0,0.0138 -0.01098,0.0248 -0.02481,0.0248 h -1.544608 c -0.01383,0 -0.02532,-0.011 -0.02532,-0.0248 V 29.82402 c 0,-0.01383 0.0115,-0.0248 0.02532,-0.0248 z m 22.701973,0 h 1.502751 c 0.01384,0 0.0248,0.01098 0.0248,0.0248 v 2.636015 c 0,0.0138 -0.01096,0.0248 -0.0248,0.0248 h -1.502751 c -0.01384,0 -0.02481,-0.011 -0.02481,-0.0248 V 29.82402 c 0,-0.01383 0.01096,-0.0248 0.02481,-0.0248 z m 5.790861,0 h 1.586466 c 0.01384,0 0.02532,0.01098 0.02532,0.0248 v 2.677872 c 0,0.0138 -0.01148,0.02481 -0.02532,0.02481 h -1.586466 c -0.01384,0 -0.02481,-0.01091 -0.02481,-0.02481 V 29.82402 c 0,-0.01383 0.01096,-0.0248 0.02481,-0.0248 z m -2.895431,0.04186 h 1.502751 c 0.01384,0 0.0248,0.0115 0.0248,0.02532 v 2.593641 c 0,0.0138 -0.01096,0.0248 -0.0248,0.0248 h -1.502751 c -0.01384,0 -0.0248,-0.011 -0.0248,-0.0248 V 29.8664 c 0,-0.01383 0.01096,-0.02532 0.0248,-0.02532 z M 4.6413787,35.380271 c -0.01489,0 -0.026872,0.01197 -0.026872,0.02687 v 1.121378 c 0,0.0149 0.011982,0.02687 0.026872,0.02687 H 44.620334 c 0.01489,0 0.02687,-0.01197 0.02687,-0.02687 v -1.121378 c 0,-0.0149 -0.01199,-0.02687 -0.02687,-0.02687 z m 0.041858,2.307869 c -0.01489,0 -0.026872,0.01197 -0.026872,0.02687 v 1.121379 c 0,0.0149 0.011982,0.02687 0.026872,0.02687 H 44.662192 c 0.01489,0 0.02687,-0.01197 0.02687,-0.02687 V 37.71501 c 0,-0.0149 -0.01199,-0.02687 -0.02687,-0.02687 z" />
  </g>
  <g
     inkscape:label="Layer 1"
     inkscape:groupmode="layer"
     id="layer1" />
</svg>
